<svg xmlns="http://www.w3.org/2000/svg" width="285.4029541015625" height="268.3996887207031" viewBox="-118.74308013916016 -59.05205535888672 285.4029541015625 268.3996887207031"><title>Neo4j Graph Visualization</title><desc>Created using Neo4j (http://www.neo4j.com/)</desc><g class="layer relationships"><g class="relationship" transform="translate(113.55166135122171 140.58546507204278) rotate(218.90342533337815)"><path class="outline" fill="#57C7E3" stroke="none" d="M 25 0.5 L 37.74762630800265 0.5 L 37.74762630800265 -0.5 L 25 -0.5 Z M 73.52106380800265 0.5 L 86.2686901160053 0.5 L 86.2686901160053 3.5 L 93.2686901160053 0 L 86.2686901160053 -3.5 L 86.2686901160053 -0.5 L 73.52106380800265 -0.5 Z"/><text text-anchor="middle" pointer-events="none" font-size="8px" fill="#000000" x="55.63434505800265" y="3" transform="rotate(180 55.63434505800265 0)" font-family="sans-serif">WROTE</text></g><g class="relationship" transform="translate(137.65987400914176 51.75927016751746) rotate(532.8584076143359)"><path class="outline" fill="#57C7E3" stroke="none" d="M 25 0.5 L 37.14012045288579 0.5 L 37.14012045288579 -0.5 L 25 -0.5 Z M 72.91355795288578 0.5 L 85.05367840577158 0.5 L 85.05367840577158 3.5 L 92.05367840577158 0 L 85.05367840577158 -3.5 L 85.05367840577158 -0.5 L 72.91355795288578 -0.5 Z"/><text text-anchor="middle" pointer-events="none" font-size="8px" fill="#000000" x="55.02683920288579" y="3" transform="rotate(180 55.02683920288579 0)" font-family="sans-serif">WROTE</text></g><g class="relationship" transform="translate(75.96699489937075 -30.05205478409848) rotate(479.4697064691502)"><path class="outline" fill="#4C8EDA" stroke="none" d="M 25 0.5 L 29.060977210445103 0.5 L 29.060977210445103 -0.5 L 25 -0.5 Z M 74.6234772104451 0.5 L 78.6844544208902 0.5 L 78.6844544208902 3.5 L 85.6844544208902 0 L 78.6844544208902 -3.5 L 78.6844544208902 -0.5 L 74.6234772104451 -0.5 Z"/><text text-anchor="middle" pointer-events="none" font-size="8px" fill="#000000" x="51.8422272104451" y="3" transform="rotate(180 51.8422272104451 0)" font-family="sans-serif">ACTED_IN</text></g><g class="relationship" transform="translate(-89.74307968492275 66.11677528592706) rotate(360.1003286205365)"><path class="outline" fill="#4C8EDA" stroke="none" d="M 25 0.5 L 29.347527007334065 0.5 L 29.347527007334065 -0.5 L 25 -0.5 Z M 74.91002700733407 0.5 L 79.25755401466813 0.5 L 79.25755401466813 3.5 L 86.25755401466813 0 L 79.25755401466813 -3.5 L 79.25755401466813 -0.5 L 74.91002700733407 -0.5 Z"/><text text-anchor="middle" pointer-events="none" font-size="8px" fill="#000000" x="52.128777007334065" y="3" font-family="sans-serif">ACTED_IN</text></g><g class="relationship" transform="translate(17.44281474150792 180.3476347103706) rotate(272.04479293153304)"><path class="outline" fill="#4C8EDA" stroke="none" d="M 25 0.5 L 30.773100227695842 0.5 L 30.773100227695842 -0.5 L 25 -0.5 Z M 76.33560022769583 0.5 L 82.10870045539168 0.5 L 82.10870045539168 3.5 L 89.10870045539168 0 L 82.10870045539168 -3.5 L 82.10870045539168 -0.5 L 76.33560022769583 -0.5 Z"/><text text-anchor="middle" pointer-events="none" font-size="8px" fill="#000000" x="53.55435022769584" y="3" font-family="sans-serif">ACTED_IN</text></g></g><g class="layer nodes"><g class="node" transform="translate(21.51430375928632,66.31159436874697)"><circle class="outline" cx="0" cy="0" r="25" fill="#57C7E3" stroke="#23b3d7" stroke-width="2px"/><text text-anchor="middle" pointer-events="none" font-family="sans-serif" dy="1.5625" font-size="25" fill="#FFFFFF"/><text text-anchor="middle" pointer-events="none" font-family="sans-serif" dy="1.5625" font-size="25" fill="#FFFFFF"/><text text-anchor="middle" pointer-events="none" font-family="sans-serif" dy="1.5625" font-size="25" fill="#FFFFFF"/><text text-anchor="middle" pointer-events="none" y="-5" font-size="10px" fill="#FFFFFF" font-family="sans-serif"> Captain</text><text text-anchor="middle" pointer-events="none" y="5" font-size="10px" fill="#FFFFFF" font-family="sans-serif"> America:</text><text text-anchor="middle" pointer-events="none" y="15" font-size="10px" fill="#FFFFFF" font-family="sans-serif"> The Fi…</text></g><g class="node" transform="translate(113.55166135122171,140.58546507204278)"><circle class="outline" cx="0" cy="0" r="25" fill="#F79767" stroke="#f36924" stroke-width="2px"/><text text-anchor="middle" pointer-events="none" font-family="sans-serif" dy="1.5625" font-size="25" fill="#FFFFFF"/><text text-anchor="middle" pointer-events="none" y="5" font-size="10px" fill="#FFFFFF" font-family="sans-serif"> Christop…</text></g><g class="node" transform="translate(137.65987400914176,51.75927016751746)"><circle class="outline" cx="0" cy="0" r="25" fill="#F79767" stroke="#f36924" stroke-width="2px"/><text text-anchor="middle" pointer-events="none" font-family="sans-serif" dy="1.5625" font-size="25" fill="#FFFFFF"/><text text-anchor="middle" pointer-events="none" font-family="sans-serif" dy="1.5625" font-size="25" fill="#FFFFFF"/><text text-anchor="middle" pointer-events="none" y="0" font-size="10px" fill="#FFFFFF" font-family="sans-serif"> Stephen</text><text text-anchor="middle" pointer-events="none" y="10" font-size="10px" fill="#FFFFFF" font-family="sans-serif"> McFeely</text></g><g class="node" transform="translate(75.96699489937075,-30.05205478409848)"><circle class="outline" cx="0" cy="0" r="25" fill="#F79767" stroke="#f36924" stroke-width="2px"/><text text-anchor="middle" pointer-events="none" font-family="sans-serif" dy="1.5625" font-size="25" fill="#FFFFFF"/><text text-anchor="middle" pointer-events="none" font-family="sans-serif" dy="1.5625" font-size="25" fill="#FFFFFF"/><text text-anchor="middle" pointer-events="none" y="0" font-size="10px" fill="#FFFFFF" font-family="sans-serif"> Chris</text><text text-anchor="middle" pointer-events="none" y="10" font-size="10px" fill="#FFFFFF" font-family="sans-serif"> Evans</text></g><g class="node" transform="translate(-89.74307968492275,66.11677528592706)"><circle class="outline" cx="0" cy="0" r="25" fill="#F79767" stroke="#f36924" stroke-width="2px"/><text text-anchor="middle" pointer-events="none" font-family="sans-serif" dy="1.5625" font-size="25" fill="#FFFFFF"/><text text-anchor="middle" pointer-events="none" font-family="sans-serif" dy="1.5625" font-size="25" fill="#FFFFFF"/><text text-anchor="middle" pointer-events="none" y="0" font-size="10px" fill="#FFFFFF" font-family="sans-serif"> Hugo</text><text text-anchor="middle" pointer-events="none" y="10" font-size="10px" fill="#FFFFFF" font-family="sans-serif"> Weaving</text></g><g class="node" transform="translate(17.44281474150792,180.3476347103706)"><circle class="outline" cx="0" cy="0" r="25" fill="#F79767" stroke="#f36924" stroke-width="2px"/><text text-anchor="middle" pointer-events="none" font-family="sans-serif" dy="1.5625" font-size="25" fill="#FFFFFF"/><text text-anchor="middle" pointer-events="none" font-family="sans-serif" dy="1.5625" font-size="25" fill="#FFFFFF"/><text text-anchor="middle" pointer-events="none" font-family="sans-serif" dy="1.5625" font-size="25" fill="#FFFFFF"/><text text-anchor="middle" pointer-events="none" y="-5" font-size="10px" fill="#FFFFFF" font-family="sans-serif"> Samuel</text><text text-anchor="middle" pointer-events="none" y="5" font-size="10px" fill="#FFFFFF" font-family="sans-serif"> L.</text><text text-anchor="middle" pointer-events="none" y="15" font-size="10px" fill="#FFFFFF" font-family="sans-serif"> Jackson</text></g></g></svg>