<svg xmlns="http://www.w3.org/2000/svg" width="605.7872314453125" height="587.6461791992188" viewBox="-201.3178253173828 -195.7877197265625 605.7872314453125 587.6461791992188"><title>Neo4j Graph Visualization</title><desc>Created using Neo4j (http://www.neo4j.com/)</desc><g class="layer relationships"><g class="relationship" transform="translate(116.41968842467897 362.85848575368567) rotate(313.47602612668896)"><path class="outline" fill="#A5ABB6" stroke="none" d="M 25 0.5 L 30.923071968794524 0.5 L 30.923071968794524 -0.5 L 25 -0.5 Z M 77.81369696879452 0.5 L 83.73676893758905 0.5 L 83.73676893758905 3.5 L 90.73676893758905 0 L 83.73676893758905 -3.5 L 83.73676893758905 -0.5 L 77.81369696879452 -0.5 Z"/><text text-anchor="middle" pointer-events="none" font-size="8px" fill="#000000" x="54.368384468794524" y="3" font-family="sans-serif">DIRECTED</text></g><g class="relationship" transform="translate(241.43754702898943 185.41879182351025) rotate(424.4922284798989)"><path class="outline" fill="#A5ABB6" stroke="none" d="M 25 0.5 L 36.84178173293276 0.5 L 36.84178173293276 -0.5 L 25 -0.5 Z M 83.73240673293276 0.5 L 95.57418846586552 0.5 L 95.57418846586552 3.5 L 102.57418846586552 0 L 95.57418846586552 -3.5 L 95.57418846586552 -0.5 L 83.73240673293276 -0.5 Z"/><text text-anchor="middle" pointer-events="none" font-size="8px" fill="#000000" x="60.28709423293276" y="3" font-family="sans-serif">DIRECTED</text></g><g class="relationship" transform="translate(241.43754702898943 185.41879182351025) rotate(475.9031217792159)"><path class="outline" fill="#A5ABB6" stroke="none" d="M 25 0.5 L 25.0004075407222 0.5 L 25.0004075407222 -0.5 L 25 -0.5 Z M 71.8910325407222 0.5 L 71.8914400814444 0.5 L 71.8914400814444 3.5 L 78.8914400814444 0 L 71.8914400814444 -3.5 L 71.8914400814444 -0.5 L 71.8910325407222 -0.5 Z"/><text text-anchor="middle" pointer-events="none" font-size="8px" fill="#000000" x="48.4457200407222" y="3" transform="rotate(180 48.4457200407222 0)" font-family="sans-serif">DIRECTED</text></g><g class="relationship" transform="translate(241.43754702898943 185.41879182351025) rotate(305.189736836438)"><path class="outline" fill="#A5ABB6" stroke="none" d="M 24.018736134675446,6.953439040707552 L 24.277555179777966,5.987513214418485 A 132.53808659843077 132.53808659843077 0 0 0 38.946858624972734,9.041283936272862 L 38.798719489484725,10.030250465806034 A 133.53808659843077 133.53808659843077 0 0 1 24.018736134675446,6.953439040707552 Z M 74.59489382507971,10.53996069160874 L 74.47497329873326,9.547177196902652 A 132.53808659843077 132.53808659843077 0 0 0 89.22527847799833,6.912319267639358 L 88.5316436956143,3.993608800897742 L 96.15120869745944,5.780289853200229 L 90.15012485451037,10.803933223294845 L 89.45649007212634,7.88522275655323 A 133.53808659843077 133.53808659843077 0 0 1 74.59489382507971,10.53996069160874"/><text text-anchor="middle" pointer-events="none" font-size="8px" fill="#000000" x="56.686767306490786" y="13.99015392373559" font-family="sans-serif">WROTE</text></g><g class="relationship" transform="translate(241.43754702898943 185.41879182351025) rotate(255.05098682364235)"><path class="outline" fill="#A5ABB6" stroke="none" d="M 25 0.5 L 27.314576708136855 0.5 L 27.314576708136855 -0.5 L 25 -0.5 Z M 55.091920458136855 0.5 L 57.40649716627371 0.5 L 57.40649716627371 3.5 L 64.40649716627371 0 L 57.40649716627371 -3.5 L 57.40649716627371 -0.5 L 55.091920458136855 -0.5 Z"/><text text-anchor="middle" pointer-events="none" font-size="8px" fill="#000000" x="41.203248583136855" y="3" transform="rotate(180 41.203248583136855 0)" font-family="sans-serif">DIR…</text></g><g class="relationship" transform="translate(241.43754702898943 185.41879182351025) rotate(305.189736836438)"><path class="outline" fill="#A5ABB6" stroke="none" d="M 24.018736134675446,-6.953439040707552 L 24.277555179777966,-5.987513214418485 A 132.53808659843077 132.53808659843077 0 0 1 31.101291245340455,-7.62361621888752 L 30.89395729588623,-8.60188644403172 A 133.53808659843077 133.53808659843077 0 0 0 24.018736134675446,-6.953439040707552 Z M 82.53712057735675,-9.33724570814141 L 82.35772468368562,-8.353468744935867 A 132.53808659843077 132.53808659843077 0 0 1 89.22527847799833,-6.912319267639358 L 88.5316436956143,-3.993608800897742 L 96.15120869745944,-5.780289853200229 L 90.15012485451037,-10.803933223294845 L 89.45649007212634,-7.88522275655323 A 133.53808659843077 133.53808659843077 0 0 0 82.53712057735675,-9.33724570814141"/><text text-anchor="middle" pointer-events="none" font-size="8px" fill="#000000" x="56.686767306490744" y="-7.9901539237355905" font-family="sans-serif">PRODUCED</text></g><g class="relationship" transform="translate(241.43754702898943 185.41879182351025) rotate(350.3358089987257)"><path class="outline" fill="#A5ABB6" stroke="none" d="M 25 0.5 L 41.035335213988446 0.5 L 41.035335213988446 -0.5 L 25 -0.5 Z M 87.92596021398845 0.5 L 103.96129542797689 0.5 L 103.96129542797689 3.5 L 110.96129542797689 0 L 103.96129542797689 -3.5 L 103.96129542797689 -0.5 L 87.92596021398845 -0.5 Z"/><text text-anchor="middle" pointer-events="none" font-size="8px" fill="#000000" x="64.48064771398845" y="3" font-family="sans-serif">DIRECTED</text></g><g class="relationship" transform="translate(298.18781572500257 204.56937139702615) rotate(503.9641655775374)"><path class="outline" fill="#A5ABB6" stroke="none" d="M 25 0.5 L 36.20649988318965 0.5 L 36.20649988318965 -0.5 L 25 -0.5 Z M 83.09712488318965 0.5 L 94.3036247663793 0.5 L 94.3036247663793 3.5 L 101.3036247663793 0 L 94.3036247663793 -3.5 L 94.3036247663793 -0.5 L 83.09712488318965 -0.5 Z"/><text text-anchor="middle" pointer-events="none" font-size="8px" fill="#000000" x="59.65181238318965" y="3" transform="rotate(180 59.65181238318965 0)" font-family="sans-serif">DIRECTED</text></g><g class="relationship" transform="translate(298.18781572500257 204.56937139702615) rotate(276.1522387242945)"><path class="outline" fill="#A5ABB6" stroke="none" d="M 24.018736134675446,6.953439040707552 L 24.277555179777966,5.987513214418485 A 128.19887831967847 128.19887831967847 0 0 0 37.86055782480088,8.849044004915214 L 37.707691365423415,9.837290859500342 A 129.19887831967847 129.19887831967847 0 0 1 24.018736134675446,6.953439040707552 Z M 73.50085265609815,10.355863433533983 L 73.37667985819884,9.363602824489234 A 128.19887831967847 128.19887831967847 0 0 0 87.03687998548196,6.896772509645533 L 86.34469732545824,3.9777173260009193 L 93.96337252399002,5.768188833530968 L 87.95979019884692,10.788846087838353 L 87.2676075388232,7.869790904193739 A 129.19887831967847 129.19887831967847 0 0 1 73.50085265609815,10.355863433533983"/><text text-anchor="middle" pointer-events="none" font-size="8px" fill="#000000" x="55.59346825562798" y="13.842279039321824" font-family="sans-serif">WROTE</text></g><g class="relationship" transform="translate(298.18781572500257 204.56937139702615) rotate(451.08178477195554)"><path class="outline" fill="#A5ABB6" stroke="none" d="M 25 0.5 L 25.057520787032054 0.5 L 25.057520787032054 -0.5 L 25 -0.5 Z M 63.948145787032054 0.5 L 64.00566657406411 0.5 L 64.00566657406411 3.5 L 71.00566657406411 0 L 64.00566657406411 -3.5 L 64.00566657406411 -0.5 L 63.948145787032054 -0.5 Z"/><text text-anchor="middle" pointer-events="none" font-size="8px" fill="#000000" x="44.502833287032054" y="3" transform="rotate(180 44.502833287032054 0)" font-family="sans-serif">DIREC…</text></g><g class="relationship" transform="translate(298.18781572500257 204.56937139702615) rotate(232.8996868081706)"><path class="outline" fill="#A5ABB6" stroke="none" d="M 25 0.5 L 39.211749215177406 0.5 L 39.211749215177406 -0.5 L 25 -0.5 Z M 86.1023742151774 0.5 L 100.31412343035481 0.5 L 100.31412343035481 3.5 L 107.31412343035481 0 L 100.31412343035481 -3.5 L 100.31412343035481 -0.5 L 86.1023742151774 -0.5 Z"/><text text-anchor="middle" pointer-events="none" font-size="8px" fill="#000000" x="62.657061715177406" y="3" transform="rotate(180 62.657061715177406 0)" font-family="sans-serif">DIRECTED</text></g><g class="relationship" transform="translate(298.18781572500257 204.56937139702615) rotate(331.4917574603352)"><path class="outline" fill="#A5ABB6" stroke="none" d="M 25 0.5 L 26.58383357367987 0.5 L 26.58383357367987 -0.5 L 25 -0.5 Z M 54.36117732367987 0.5 L 55.94501089735974 0.5 L 55.94501089735974 3.5 L 62.94501089735974 0 L 55.94501089735974 -3.5 L 55.94501089735974 -0.5 L 54.36117732367987 -0.5 Z"/><text text-anchor="middle" pointer-events="none" font-size="8px" fill="#000000" x="40.47250544867987" y="3" font-family="sans-serif">DIR…</text></g><g class="relationship" transform="translate(298.18781572500257 204.56937139702615) rotate(276.1522387242945)"><path class="outline" fill="#A5ABB6" stroke="none" d="M 24.018736134675446,-6.953439040707552 L 24.277555179777966,-5.987513214418485 A 128.19887831967847 128.19887831967847 0 0 1 30.02441688574806,-7.386128561536495 L 29.81042554726275,-8.362964119372748 A 129.19887831967847 129.19887831967847 0 0 0 24.018736134675446,-6.953439040707552 Z M 81.43751507757428,-9.110939200148138 L 81.25191247064956,-8.128314311239478 A 128.19887831967847 128.19887831967847 0 0 1 87.03687998548196,-6.896772509645533 L 86.34469732545824,-3.9777173260009193 L 93.96337252399002,-5.768188833530968 L 87.95979019884692,-10.788846087838353 L 87.2676075388232,-7.869790904193739 A 129.19887831967847 129.19887831967847 0 0 0 81.43751507757428,-9.110939200148138"/><text text-anchor="middle" pointer-events="none" font-size="8px" fill="#000000" x="55.59346825562793" y="-7.842279039321795" font-family="sans-serif">PRODUCED</text></g><g class="relationship" transform="translate(333.3932197733084 -31.95707687786904) rotate(460.7271475518924)"><path class="outline" fill="#A5ABB6" stroke="none" d="M 25 0.5 L 33.57168079805547 0.5 L 33.57168079805547 -0.5 L 25 -0.5 Z M 80.46230579805547 0.5 L 89.03398659611094 0.5 L 89.03398659611094 3.5 L 96.03398659611094 0 L 89.03398659611094 -3.5 L 89.03398659611094 -0.5 L 80.46230579805547 -0.5 Z"/><text text-anchor="middle" pointer-events="none" font-size="8px" fill="#000000" x="57.01699329805547" y="3" transform="rotate(180 57.01699329805547 0)" font-family="sans-serif">DIRECTED</text></g><g class="relationship" transform="translate(-130.81032102229722 31.19801441979519) rotate(302.46241482883306)"><path class="outline" fill="#A5ABB6" stroke="none" d="M 25 0.5 L 33.92052830518964 0.5 L 33.92052830518964 -0.5 L 25 -0.5 Z M 80.81115330518963 0.5 L 89.73168161037928 0.5 L 89.73168161037928 3.5 L 96.73168161037928 0 L 89.73168161037928 -3.5 L 89.73168161037928 -0.5 L 80.81115330518963 -0.5 Z"/><text text-anchor="middle" pointer-events="none" font-size="8px" fill="#000000" x="57.36584080518964" y="3" font-family="sans-serif">DIRECTED</text></g><g class="relationship" transform="translate(-130.81032102229722 31.19801441979519) rotate(249.7816683267651)"><path class="outline" fill="#A5ABB6" stroke="none" d="M 25 0.5 L 27.519525806255146 0.5 L 27.519525806255146 -0.5 L 25 -0.5 Z M 55.296869556255146 0.5 L 57.81639536251029 0.5 L 57.81639536251029 3.5 L 64.81639536251029 0 L 57.81639536251029 -3.5 L 57.81639536251029 -0.5 L 55.296869556255146 -0.5 Z"/><text text-anchor="middle" pointer-events="none" font-size="8px" fill="#000000" x="41.408197681255146" y="3" transform="rotate(180 41.408197681255146 0)" font-family="sans-serif">DIR…</text></g><g class="relationship" transform="translate(-130.81032102229722 31.19801441979519) rotate(467.4818360365516)"><path class="outline" fill="#A5ABB6" stroke="none" d="M 24.018736134675446,-6.953439040707552 L 24.277555179777966,-5.987513214418485 A 101.26002056448532 101.26002056448532 0 0 1 31.16140148846759,-7.576878407107884 L 30.970564320815964,-8.558500114000466 A 102.26002056448532 102.26002056448532 0 0 0 24.018736134675446,-6.953439040707552 Z M 66.73022772883934,-9.139337478066878 L 66.57137140718177,-8.152035766800537 A 101.26002056448532 101.26002056448532 0 0 1 73.50320425030301,-6.787076004603107 L 72.82126797043712,-3.8656101208039053 L 80.43361402581215,-5.682802332215864 L 74.41245262345755,-10.68236384966871 L 73.73051634359166,-7.760897965869508 A 102.26002056448532 102.26002056448532 0 0 0 66.73022772883934,-9.139337478066878"/><text text-anchor="middle" pointer-events="none" font-size="8px" fill="#000000" x="48.83292647837964" y="-6.92444378722594" transform="rotate(180 48.83292647837964 -9.92444378722594)" font-family="sans-serif">WROTE</text></g><g class="relationship" transform="translate(-130.81032102229722 31.19801441979519) rotate(418.7147693127685)"><path class="outline" fill="#A5ABB6" stroke="none" d="M 25 0.5 L 36.82148540062566 0.5 L 36.82148540062566 -0.5 L 25 -0.5 Z M 83.71211040062566 0.5 L 95.53359580125132 0.5 L 95.53359580125132 3.5 L 102.53359580125132 0 L 95.53359580125132 -3.5 L 95.53359580125132 -0.5 L 83.71211040062566 -0.5 Z"/><text text-anchor="middle" pointer-events="none" font-size="8px" fill="#000000" x="60.26679790062566" y="3" font-family="sans-serif">DIRECTED</text></g><g class="relationship" transform="translate(-130.81032102229722 31.19801441979519) rotate(343.0501407114102)"><path class="outline" fill="#A5ABB6" stroke="none" d="M 25 0.5 L 41.50926484114649 0.5 L 41.50926484114649 -0.5 L 25 -0.5 Z M 88.39988984114649 0.5 L 104.90915468229298 0.5 L 104.90915468229298 3.5 L 111.90915468229298 0 L 104.90915468229298 -3.5 L 104.90915468229298 -0.5 L 88.39988984114649 -0.5 Z"/><text text-anchor="middle" pointer-events="none" font-size="8px" fill="#000000" x="64.95457734114649" y="3" font-family="sans-serif">DIRECTED</text></g><g class="relationship" transform="translate(-130.81032102229722 31.19801441979519) rotate(467.4818360365516)"><path class="outline" fill="#A5ABB6" stroke="none" d="M 24.018736134675446,6.953439040707552 L 24.277555179777966,5.987513214418485 A 101.26002056448532 101.26002056448532 0 0 0 24.906707043202534,6.153928895081961 L 24.654101228750346,7.121498170382168 A 102.26002056448532 102.26002056448532 0 0 1 24.018736134675446,6.953439040707552 Z M 73.09002835182683,7.908233658221462 L 72.8689795859679,6.932970902287323 A 101.26002056448532 101.26002056448532 0 0 0 73.50320425030301,6.787076004603107 L 72.82126797043712,3.8656101208039053 L 80.43361402581215,5.682802332215864 L 74.41245262345755,10.68236384966871 L 73.73051634359166,7.760897965869508 A 102.26002056448532 102.26002056448532 0 0 1 73.09002835182683,7.908233658221462"/><text text-anchor="middle" pointer-events="none" font-size="8px" fill="#000000" x="48.83292647837965" y="12.92444378722594" transform="rotate(180 48.83292647837965 9.92444378722594)" font-family="sans-serif">PRODUC…</text></g><g class="relationship" transform="translate(-72.31062586572176 44.19920734898747) rotate(227.37336550467973)"><path class="outline" fill="#A5ABB6" stroke="none" d="M 25 0.5 L 39.16345295516855 0.5 L 39.16345295516855 -0.5 L 25 -0.5 Z M 86.05407795516855 0.5 L 100.2175309103371 0.5 L 100.2175309103371 3.5 L 107.2175309103371 0 L 100.2175309103371 -3.5 L 100.2175309103371 -0.5 L 86.05407795516855 -0.5 Z"/><text text-anchor="middle" pointer-events="none" font-size="8px" fill="#000000" x="62.60876545516855" y="3" transform="rotate(180 62.60876545516855 0)" font-family="sans-serif">DIRECTED</text></g><g class="relationship" transform="translate(-72.31062586572176 44.19920734898747) rotate(273.38262907930874)"><path class="outline" fill="#A5ABB6" stroke="none" d="M 25 0.5 L 31.011429606045667 0.5 L 31.011429606045667 -0.5 L 25 -0.5 Z M 77.90205460604567 0.5 L 83.91348421209133 0.5 L 83.91348421209133 3.5 L 90.91348421209133 0 L 83.91348421209133 -3.5 L 83.91348421209133 -0.5 L 77.90205460604567 -0.5 Z"/><text text-anchor="middle" pointer-events="none" font-size="8px" fill="#000000" x="54.45674210604567" y="3" font-family="sans-serif">DIRECTED</text></g><g class="relationship" transform="translate(-72.31062586572176 44.19920734898747) rotate(323.86148524706516)"><path class="outline" fill="#A5ABB6" stroke="none" d="M 25 0.5 L 27.474336376703867 0.5 L 27.474336376703867 -0.5 L 25 -0.5 Z M 55.25168012670387 0.5 L 57.726016503407735 0.5 L 57.726016503407735 3.5 L 64.72601650340773 0 L 57.726016503407735 -3.5 L 57.726016503407735 -0.5 L 55.25168012670387 -0.5 Z"/><text text-anchor="middle" pointer-events="none" font-size="8px" fill="#000000" x="41.36300825170387" y="3" font-family="sans-serif">DIR…</text></g><g class="relationship" transform="translate(-72.31062586572176 44.19920734898747) rotate(495.9835569153345)"><path class="outline" fill="#A5ABB6" stroke="none" d="M 24.018736134675446,-6.953439040707552 L 24.277555179777966,-5.987513214418485 A 141.74282208753806 141.74282208753806 0 0 1 33.3934032849314,-8.110170368059244 L 33.198896830554105,-9.091071606311885 A 142.74282208753806 142.74282208753806 0 0 0 24.018736134675446,-6.953439040707552 Z M 84.87083719061133,-9.800942830594408 L 84.70335037902693,-8.815068514088836 A 141.74282208753806 141.74282208753806 0 0 1 93.87406949261869,-6.943632966779129 L 93.17750993569773,-4.025619124512087 L 100.79886171739528,-5.80466297434138 L 94.80281556851331,-10.834318089801851 L 94.10625601159235,-7.916304247534809 A 142.74282208753806 142.74282208753806 0 0 0 84.87083719061133,-9.800942830594408"/><text text-anchor="middle" pointer-events="none" font-size="8px" fill="#000000" x="59.00934373069763" y="-8.303861644582469" transform="rotate(180 59.00934373069763 -11.303861644582469)" font-family="sans-serif">PRODUCED</text></g><g class="relationship" transform="translate(-72.31062586572176 44.19920734898747) rotate(495.9835569153345)"><path class="outline" fill="#A5ABB6" stroke="none" d="M 24.018736134675446,6.953439040707552 L 24.277555179777966,5.987513214418485 A 141.74282208753806 141.74282208753806 0 0 0 41.25635456935892,9.440639044300468 L 41.11732147983089,10.43092678027233 A 142.74282208753806 142.74282208753806 0 0 1 24.018736134675446,6.953439040707552 Z M 76.91859390218208,10.922766121087392 L 76.80681737551521,9.929032752378106 A 141.74282208753806 141.74282208753806 0 0 0 93.87406949261869,6.943632966779129 L 93.17750993569773,4.025619124512087 L 100.79886171739528,5.80466297434138 L 94.80281556851331,10.834318089801851 L 94.10625601159235,7.916304247534809 A 142.74282208753806 142.74282208753806 0 0 1 76.91859390218208,10.922766121087392"/><text text-anchor="middle" pointer-events="none" font-size="8px" fill="#000000" x="59.0093437306977" y="14.303861644582469" transform="rotate(180 59.0093437306977 11.303861644582469)" font-family="sans-serif">WROTE</text></g><g class="relationship" transform="translate(-72.31062586572176 44.19920734898747) rotate(445.39683621666995)"><path class="outline" fill="#A5ABB6" stroke="none" d="M 25 0.5 L 25.204040506022885 0.5 L 25.204040506022885 -0.5 L 25 -0.5 Z M 64.09466550602289 0.5 L 64.29870601204577 0.5 L 64.29870601204577 3.5 L 71.29870601204577 0 L 64.29870601204577 -3.5 L 64.29870601204577 -0.5 L 64.09466550602289 -0.5 Z"/><text text-anchor="middle" pointer-events="none" font-size="8px" fill="#000000" x="44.649353006022885" y="3" font-family="sans-serif">DIREC…</text></g><g class="relationship" transform="translate(9.614377701254844 -166.78772534165086) rotate(488.2413238336897)"><path class="outline" fill="#A5ABB6" stroke="none" d="M 25 0.5 L 33.70792341400577 0.5 L 33.70792341400577 -0.5 L 25 -0.5 Z M 80.59854841400576 0.5 L 89.30647182801154 0.5 L 89.30647182801154 3.5 L 96.30647182801154 0 L 89.30647182801154 -3.5 L 89.30647182801154 -0.5 L 80.59854841400576 -0.5 Z"/><text text-anchor="middle" pointer-events="none" font-size="8px" fill="#000000" x="57.15323591400577" y="3" transform="rotate(180 57.15323591400577 0)" font-family="sans-serif">DIRECTED</text></g><g class="relationship" transform="translate(-172.3178293458834 248.22773783447212) rotate(274.89675859417946)"><path class="outline" fill="#A5ABB6" stroke="none" d="M 25 0.5 L 31.814190198511874 0.5 L 31.814190198511874 -0.5 L 25 -0.5 Z M 78.70481519851188 0.5 L 85.51900539702375 0.5 L 85.51900539702375 3.5 L 92.51900539702375 0 L 85.51900539702375 -3.5 L 85.51900539702375 -0.5 L 78.70481519851188 -0.5 Z"/><text text-anchor="middle" pointer-events="none" font-size="8px" fill="#000000" x="55.259502698511874" y="3" font-family="sans-serif">DIRECTED</text></g></g><g class="layer nodes"><g class="node" transform="translate(196.05248827282986,278.87267223463226)"><circle class="outline" cx="0" cy="0" r="25" fill="#57C7E3" stroke="#23b3d7" stroke-width="2px"/><text text-anchor="middle" pointer-events="none" font-family="sans-serif" dy="1.5625" font-size="25" fill="#FFFFFF"/><text text-anchor="middle" pointer-events="none" font-family="sans-serif" dy="1.5625" font-size="25" fill="#FFFFFF"/><text text-anchor="middle" pointer-events="none" y="0" font-size="10px" fill="#FFFFFF" font-family="sans-serif"> Cloud</text><text text-anchor="middle" pointer-events="none" y="10" font-size="10px" fill="#FFFFFF" font-family="sans-serif"> Atlas</text></g><g class="node" transform="translate(116.41968842467897,362.85848575368567)"><circle class="outline" cx="0" cy="0" r="25" fill="#F79767" stroke="#f36924" stroke-width="2px"/><text text-anchor="middle" pointer-events="none" font-family="sans-serif" dy="1.5625" font-size="25" fill="#FFFFFF"/><text text-anchor="middle" pointer-events="none" font-family="sans-serif" dy="1.5625" font-size="25" fill="#FFFFFF"/><text text-anchor="middle" pointer-events="none" y="0" font-size="10px" fill="#FFFFFF" font-family="sans-serif"> Tom</text><text text-anchor="middle" pointer-events="none" y="10" font-size="10px" fill="#FFFFFF" font-family="sans-serif"> Tykwer</text></g><g class="node" transform="translate(241.43754702898943,185.41879182351025)"><circle class="outline" cx="0" cy="0" r="25" fill="#F79767" stroke="#f36924" stroke-width="2px"/><text text-anchor="middle" pointer-events="none" font-family="sans-serif" dy="1.5625" font-size="25" fill="#FFFFFF"/><text text-anchor="middle" pointer-events="none" font-family="sans-serif" dy="1.5625" font-size="25" fill="#FFFFFF"/><text text-anchor="middle" pointer-events="none" y="0" font-size="10px" fill="#FFFFFF" font-family="sans-serif"> Lana</text><text text-anchor="middle" pointer-events="none" y="10" font-size="10px" fill="#FFFFFF" font-family="sans-serif"> Wacho…</text></g><g class="node" transform="translate(298.18781572500257,204.56937139702615)"><circle class="outline" cx="0" cy="0" r="25" fill="#F79767" stroke="#f36924" stroke-width="2px"/><text text-anchor="middle" pointer-events="none" font-family="sans-serif" dy="1.5625" font-size="25" fill="#FFFFFF"/><text text-anchor="middle" pointer-events="none" font-family="sans-serif" dy="1.5625" font-size="25" fill="#FFFFFF"/><text text-anchor="middle" pointer-events="none" y="0" font-size="10px" fill="#FFFFFF" font-family="sans-serif"> Andy</text><text text-anchor="middle" pointer-events="none" y="10" font-size="10px" fill="#FFFFFF" font-family="sans-serif"> Wacho…</text></g><g class="node" transform="translate(310.8649011574386,86.96180628073373)"><circle class="outline" cx="0" cy="0" r="25" fill="#57C7E3" stroke="#23b3d7" stroke-width="2px"/><text text-anchor="middle" pointer-events="none" font-family="sans-serif" dy="1.5625" font-size="25" fill="#FFFFFF"/><text text-anchor="middle" pointer-events="none" font-family="sans-serif" dy="1.5625" font-size="25" fill="#FFFFFF"/><text text-anchor="middle" pointer-events="none" y="0" font-size="10px" fill="#FFFFFF" font-family="sans-serif"> V for</text><text text-anchor="middle" pointer-events="none" y="10" font-size="10px" fill="#FFFFFF" font-family="sans-serif"> Vendetta</text></g><g class="node" transform="translate(333.3932197733084,-31.95707687786904)"><circle class="outline" cx="0" cy="0" r="25" fill="#F79767" stroke="#f36924" stroke-width="2px"/><text text-anchor="middle" pointer-events="none" font-family="sans-serif" dy="1.5625" font-size="25" fill="#FFFFFF"/><text text-anchor="middle" pointer-events="none" font-family="sans-serif" dy="1.5625" font-size="25" fill="#FFFFFF"/><text text-anchor="middle" pointer-events="none" y="0" font-size="10px" fill="#FFFFFF" font-family="sans-serif"> James</text><text text-anchor="middle" pointer-events="none" y="10" font-size="10px" fill="#FFFFFF" font-family="sans-serif"> Marshall</text></g><g class="node" transform="translate(296.37526864776476,300.55792637845695)"><circle class="outline" cx="0" cy="0" r="25" fill="#57C7E3" stroke="#23b3d7" stroke-width="2px"/><text text-anchor="middle" pointer-events="none" font-family="sans-serif" dy="1.5625" font-size="25" fill="#FFFFFF"/><text text-anchor="middle" pointer-events="none" font-family="sans-serif" dy="1.5625" font-size="25" fill="#FFFFFF"/><text text-anchor="middle" pointer-events="none" font-family="sans-serif" dy="1.5625" font-size="25" fill="#FFFFFF"/><text text-anchor="middle" pointer-events="none" y="-5" font-size="10px" fill="#FFFFFF" font-family="sans-serif"> The</text><text text-anchor="middle" pointer-events="none" y="5" font-size="10px" fill="#FFFFFF" font-family="sans-serif"> Matrix</text><text text-anchor="middle" pointer-events="none" y="15" font-size="10px" fill="#FFFFFF" font-family="sans-serif"> Revol…</text></g><g class="node" transform="translate(375.46935859540645,162.59452091120966)"><circle class="outline" cx="0" cy="0" r="25" fill="#57C7E3" stroke="#23b3d7" stroke-width="2px"/><text text-anchor="middle" pointer-events="none" font-family="sans-serif" dy="1.5625" font-size="25" fill="#FFFFFF"/><text text-anchor="middle" pointer-events="none" font-family="sans-serif" dy="1.5625" font-size="25" fill="#FFFFFF"/><text text-anchor="middle" pointer-events="none" font-family="sans-serif" dy="1.5625" font-size="25" fill="#FFFFFF"/><text text-anchor="middle" pointer-events="none" y="-5" font-size="10px" fill="#FFFFFF" font-family="sans-serif"> The</text><text text-anchor="middle" pointer-events="none" y="5" font-size="10px" fill="#FFFFFF" font-family="sans-serif"> Matrix</text><text text-anchor="middle" pointer-events="none" y="15" font-size="10px" fill="#FFFFFF" font-family="sans-serif"> Reloa…</text></g><g class="node" transform="translate(218.3743027215375,99.03818926970946)"><circle class="outline" cx="0" cy="0" r="25" fill="#57C7E3" stroke="#23b3d7" stroke-width="2px"/><text text-anchor="middle" pointer-events="none" font-family="sans-serif" dy="1.5625" font-size="25" fill="#FFFFFF"/><text text-anchor="middle" pointer-events="none" font-family="sans-serif" dy="1.5625" font-size="25" fill="#FFFFFF"/><text text-anchor="middle" pointer-events="none" y="0" font-size="10px" fill="#FFFFFF" font-family="sans-serif"> The</text><text text-anchor="middle" pointer-events="none" y="10" font-size="10px" fill="#FFFFFF" font-family="sans-serif"> Matrix</text></g><g class="node" transform="translate(-65.47129854923234,-71.51232804850291)"><circle class="outline" cx="0" cy="0" r="25" fill="#57C7E3" stroke="#23b3d7" stroke-width="2px"/><text text-anchor="middle" pointer-events="none" font-family="sans-serif" dy="1.5625" font-size="25" fill="#FFFFFF"/><text text-anchor="middle" pointer-events="none" font-family="sans-serif" dy="1.5625" font-size="25" fill="#FFFFFF"/><text text-anchor="middle" pointer-events="none" y="0" font-size="10px" fill="#FFFFFF" font-family="sans-serif"> Cloud</text><text text-anchor="middle" pointer-events="none" y="10" font-size="10px" fill="#FFFFFF" font-family="sans-serif"> Atlas</text></g><g class="node" transform="translate(-130.81032102229722,31.19801441979519)"><circle class="outline" cx="0" cy="0" r="25" fill="#F79767" stroke="#f36924" stroke-width="2px"/><text text-anchor="middle" pointer-events="none" font-family="sans-serif" dy="1.5625" font-size="25" fill="#FFFFFF"/><text text-anchor="middle" pointer-events="none" font-family="sans-serif" dy="1.5625" font-size="25" fill="#FFFFFF"/><text text-anchor="middle" pointer-events="none" y="0" font-size="10px" fill="#FFFFFF" font-family="sans-serif"> Lilly</text><text text-anchor="middle" pointer-events="none" y="10" font-size="10px" fill="#FFFFFF" font-family="sans-serif"> Wacho…</text></g><g class="node" transform="translate(-72.31062586572176,44.19920734898747)"><circle class="outline" cx="0" cy="0" r="25" fill="#F79767" stroke="#f36924" stroke-width="2px"/><text text-anchor="middle" pointer-events="none" font-family="sans-serif" dy="1.5625" font-size="25" fill="#FFFFFF"/><text text-anchor="middle" pointer-events="none" font-family="sans-serif" dy="1.5625" font-size="25" fill="#FFFFFF"/><text text-anchor="middle" pointer-events="none" y="0" font-size="10px" fill="#FFFFFF" font-family="sans-serif"> Lana</text><text text-anchor="middle" pointer-events="none" y="10" font-size="10px" fill="#FFFFFF" font-family="sans-serif"> Wacho…</text></g><g class="node" transform="translate(9.614377701254844,-166.78772534165086)"><circle class="outline" cx="0" cy="0" r="25" fill="#F79767" stroke="#f36924" stroke-width="2px"/><text text-anchor="middle" pointer-events="none" font-family="sans-serif" dy="1.5625" font-size="25" fill="#FFFFFF"/><text text-anchor="middle" pointer-events="none" font-family="sans-serif" dy="1.5625" font-size="25" fill="#FFFFFF"/><text text-anchor="middle" pointer-events="none" y="0" font-size="10px" fill="#FFFFFF" font-family="sans-serif"> Tom</text><text text-anchor="middle" pointer-events="none" y="10" font-size="10px" fill="#FFFFFF" font-family="sans-serif"> Tykwer</text></g><g class="node" transform="translate(-64.58227290534111,140.18729692323723)"><circle class="outline" cx="0" cy="0" r="25" fill="#57C7E3" stroke="#23b3d7" stroke-width="2px"/><text text-anchor="middle" pointer-events="none" font-family="sans-serif" dy="1.5625" font-size="25" fill="#FFFFFF"/><text text-anchor="middle" pointer-events="none" font-family="sans-serif" dy="1.5625" font-size="25" fill="#FFFFFF"/><text text-anchor="middle" pointer-events="none" y="0" font-size="10px" fill="#FFFFFF" font-family="sans-serif"> The</text><text text-anchor="middle" pointer-events="none" y="10" font-size="10px" fill="#FFFFFF" font-family="sans-serif"> Matrix</text></g><g class="node" transform="translate(-161.8507280744786,-53.08411895347467)"><circle class="outline" cx="0" cy="0" r="25" fill="#57C7E3" stroke="#23b3d7" stroke-width="2px"/><text text-anchor="middle" pointer-events="none" font-family="sans-serif" dy="1.5625" font-size="25" fill="#FFFFFF"/><text text-anchor="middle" pointer-events="none" font-family="sans-serif" dy="1.5625" font-size="25" fill="#FFFFFF"/><text text-anchor="middle" pointer-events="none" font-family="sans-serif" dy="1.5625" font-size="25" fill="#FFFFFF"/><text text-anchor="middle" pointer-events="none" y="-5" font-size="10px" fill="#FFFFFF" font-family="sans-serif"> The</text><text text-anchor="middle" pointer-events="none" y="5" font-size="10px" fill="#FFFFFF" font-family="sans-serif"> Matrix</text><text text-anchor="middle" pointer-events="none" y="15" font-size="10px" fill="#FFFFFF" font-family="sans-serif"> Revol…</text></g><g class="node" transform="translate(-162.28634163939748,131.13766189333901)"><circle class="outline" cx="0" cy="0" r="25" fill="#57C7E3" stroke="#23b3d7" stroke-width="2px"/><text text-anchor="middle" pointer-events="none" font-family="sans-serif" dy="1.5625" font-size="25" fill="#FFFFFF"/><text text-anchor="middle" pointer-events="none" font-family="sans-serif" dy="1.5625" font-size="25" fill="#FFFFFF"/><text text-anchor="middle" pointer-events="none" y="0" font-size="10px" fill="#FFFFFF" font-family="sans-serif"> V for</text><text text-anchor="middle" pointer-events="none" y="10" font-size="10px" fill="#FFFFFF" font-family="sans-serif"> Vendetta</text></g><g class="node" transform="translate(-172.3178293458834,248.22773783447212)"><circle class="outline" cx="0" cy="0" r="25" fill="#F79767" stroke="#f36924" stroke-width="2px"/><text text-anchor="middle" pointer-events="none" font-family="sans-serif" dy="1.5625" font-size="25" fill="#FFFFFF"/><text text-anchor="middle" pointer-events="none" font-family="sans-serif" dy="1.5625" font-size="25" fill="#FFFFFF"/><text text-anchor="middle" pointer-events="none" y="0" font-size="10px" fill="#FFFFFF" font-family="sans-serif"> James</text><text text-anchor="middle" pointer-events="none" y="10" font-size="10px" fill="#FFFFFF" font-family="sans-serif"> Marshall</text></g><g class="node" transform="translate(0.15153423767207672,-8.715756420440865)"><circle class="outline" cx="0" cy="0" r="25" fill="#57C7E3" stroke="#23b3d7" stroke-width="2px"/><text text-anchor="middle" pointer-events="none" font-family="sans-serif" dy="1.5625" font-size="25" fill="#FFFFFF"/><text text-anchor="middle" pointer-events="none" font-family="sans-serif" dy="1.5625" font-size="25" fill="#FFFFFF"/><text text-anchor="middle" pointer-events="none" font-family="sans-serif" dy="1.5625" font-size="25" fill="#FFFFFF"/><text text-anchor="middle" pointer-events="none" y="-5" font-size="10px" fill="#FFFFFF" font-family="sans-serif"> The</text><text text-anchor="middle" pointer-events="none" y="5" font-size="10px" fill="#FFFFFF" font-family="sans-serif"> Matrix</text><text text-anchor="middle" pointer-events="none" y="15" font-size="10px" fill="#FFFFFF" font-family="sans-serif"> Reloa…</text></g></g></svg>