<svg xmlns="http://www.w3.org/2000/svg" width="980.435546875" height="697.0543823242188" viewBox="-403.3252258300781 -267.5062255859375 980.435546875 697.0543823242188"><title>Neo4j Graph Visualization</title><desc>Created using Neo4j (http://www.neo4j.com/)</desc><g class="layer relationships"><g class="relationship" transform="translate(352.9050621691115 -16.042471352833086) rotate(481.24824338832275)"><path class="outline" fill="#A5ABB6" stroke="none" d="M 25 0.5 L 39.79267762630748 0.5 L 39.79267762630748 -0.5 L 25 -0.5 Z M 85.35517762630748 0.5 L 100.14785525261496 0.5 L 100.14785525261496 3.5 L 107.14785525261496 0 L 100.14785525261496 -3.5 L 100.14785525261496 -0.5 L 85.35517762630748 -0.5 Z"/><text text-anchor="middle" pointer-events="none" font-size="8px" fill="#000000" x="62.57392762630748" y="3" transform="rotate(180 62.57392762630748 0)" font-family="sans-serif">ACTED_IN</text></g><g class="relationship" transform="translate(352.9050621691115 -16.042471352833086) rotate(417.73596216665317)"><path class="outline" fill="#A5ABB6" stroke="none" d="M 25 0.5 L 46.23932109330083 0.5 L 46.23932109330083 -0.5 L 25 -0.5 Z M 91.80182109330083 0.5 L 113.04114218660166 0.5 L 113.04114218660166 3.5 L 120.04114218660166 0 L 113.04114218660166 -3.5 L 113.04114218660166 -0.5 L 91.80182109330083 -0.5 Z"/><text text-anchor="middle" pointer-events="none" font-size="8px" fill="#000000" x="69.02057109330083" y="3" font-family="sans-serif">ACTED_IN</text></g><g class="relationship" transform="translate(352.9050621691115 -16.042471352833086) rotate(255.43739201562522)"><path class="outline" fill="#A5ABB6" stroke="none" d="M 25 0.5 L 34.27466499638867 0.5 L 34.27466499638867 -0.5 L 25 -0.5 Z M 79.83716499638868 0.5 L 89.11182999277734 0.5 L 89.11182999277734 3.5 L 96.11182999277734 0 L 89.11182999277734 -3.5 L 89.11182999277734 -0.5 L 79.83716499638868 -0.5 Z"/><text text-anchor="middle" pointer-events="none" font-size="8px" fill="#000000" x="57.05591499638867" y="3" transform="rotate(180 57.05591499638867 0)" font-family="sans-serif">ACTED_IN</text></g><g class="relationship" transform="translate(352.9050621691115 -16.042471352833086) rotate(226.8243593437927)"><path class="outline" fill="#A5ABB6" stroke="none" d="M 25 0.5 L 34.39923462373091 0.5 L 34.39923462373091 -0.5 L 25 -0.5 Z M 79.9617346237309 0.5 L 89.36096924746182 0.5 L 89.36096924746182 3.5 L 96.36096924746182 0 L 89.36096924746182 -3.5 L 89.36096924746182 -0.5 L 79.9617346237309 -0.5 Z"/><text text-anchor="middle" pointer-events="none" font-size="8px" fill="#000000" x="57.18048462373091" y="3" transform="rotate(180 57.18048462373091 0)" font-family="sans-serif">ACTED_IN</text></g><g class="relationship" transform="translate(352.9050621691115 -16.042471352833086) rotate(278.82857835005)"><path class="outline" fill="#A5ABB6" stroke="none" d="M 25 0.5 L 50.18721167411498 0.5 L 50.18721167411498 -0.5 L 25 -0.5 Z M 95.74971167411498 0.5 L 120.93692334822995 0.5 L 120.93692334822995 3.5 L 127.93692334822995 0 L 120.93692334822995 -3.5 L 120.93692334822995 -0.5 L 95.74971167411498 -0.5 Z"/><text text-anchor="middle" pointer-events="none" font-size="8px" fill="#000000" x="72.96846167411498" y="3" font-family="sans-serif">ACTED_IN</text></g><g class="relationship" transform="translate(173.13428374247675 85.11388695648697) rotate(366.0666773668146)"><path class="outline" fill="#A5ABB6" stroke="none" d="M 25 0.5 L 29.641676326782402 0.5 L 29.641676326782402 -0.5 L 25 -0.5 Z M 75.2041763267824 0.5 L 79.8458526535648 0.5 L 79.8458526535648 3.5 L 86.8458526535648 0 L 79.8458526535648 -3.5 L 79.8458526535648 -0.5 L 75.2041763267824 -0.5 Z"/><text text-anchor="middle" pointer-events="none" font-size="8px" fill="#000000" x="52.4229263267824" y="3" font-family="sans-serif">ACTED_IN</text></g><g class="relationship" transform="translate(274.56972171397064 230.02693819658828) rotate(274.20442130089094)"><path class="outline" fill="#A5ABB6" stroke="none" d="M 25 0.5 L 40.44458989603211 0.5 L 40.44458989603211 -0.5 L 25 -0.5 Z M 86.00708989603211 0.5 L 101.45167979206423 0.5 L 101.45167979206423 3.5 L 108.45167979206423 0 L 101.45167979206423 -3.5 L 101.45167979206423 -0.5 L 86.00708989603211 -0.5 Z"/><text text-anchor="middle" pointer-events="none" font-size="8px" fill="#000000" x="63.22583989603211" y="3" font-family="sans-serif">ACTED_IN</text></g><g class="relationship" transform="translate(205.91632132805708 192.56115994556805) rotate(309.36016665108525)"><path class="outline" fill="#A5ABB6" stroke="none" d="M 25 0.5 L 35.559084155167504 0.5 L 35.559084155167504 -0.5 L 25 -0.5 Z M 81.12158415516751 0.5 L 91.68066831033501 0.5 L 91.68066831033501 3.5 L 98.68066831033501 0 L 91.68066831033501 -3.5 L 91.68066831033501 -0.5 L 81.12158415516751 -0.5 Z"/><text text-anchor="middle" pointer-events="none" font-size="8px" fill="#000000" x="58.340334155167504" y="3" font-family="sans-serif">ACTED_IN</text></g><g class="relationship" transform="translate(388.5842427769323 228.76172846929614) rotate(288.8676483801561)"><path class="outline" fill="#A5ABB6" stroke="none" d="M 25 0.5 L 38.26590956758608 0.5 L 38.26590956758608 -0.5 L 25 -0.5 Z M 83.82840956758608 0.5 L 97.09431913517216 0.5 L 97.09431913517216 3.5 L 104.09431913517216 0 L 97.09431913517216 -3.5 L 97.09431913517216 -0.5 L 83.82840956758608 -0.5 Z"/><text text-anchor="middle" pointer-events="none" font-size="8px" fill="#000000" x="61.04715956758608" y="3" font-family="sans-serif">ACTED_IN</text></g><g class="relationship" transform="translate(453.75148446285414 241.8826644326533) rotate(260.17795317213836)"><path class="outline" fill="#A5ABB6" stroke="none" d="M 25 0.5 L 42.36432045232175 0.5 L 42.36432045232175 -0.5 L 25 -0.5 Z M 87.92682045232175 0.5 L 105.2911409046435 0.5 L 105.2911409046435 3.5 L 112.2911409046435 0 L 105.2911409046435 -3.5 L 105.2911409046435 -0.5 L 87.92682045232175 -0.5 Z"/><text text-anchor="middle" pointer-events="none" font-size="8px" fill="#000000" x="65.14557045232175" y="3" transform="rotate(180 65.14557045232175 0)" font-family="sans-serif">ACTED_IN</text></g><g class="relationship" transform="translate(548.1103787495111 118.54752095814705) rotate(185.79039574248583)"><path class="outline" fill="#A5ABB6" stroke="none" d="M 25 0.5 L 32.910370399351784 0.5 L 32.910370399351784 -0.5 L 25 -0.5 Z M 78.47287039935179 0.5 L 86.38324079870357 0.5 L 86.38324079870357 3.5 L 93.38324079870357 0 L 86.38324079870357 -3.5 L 86.38324079870357 -0.5 L 78.47287039935179 -0.5 Z"/><text text-anchor="middle" pointer-events="none" font-size="8px" fill="#000000" x="55.691620399351784" y="3" transform="rotate(180 55.691620399351784 0)" font-family="sans-serif">ACTED_IN</text></g><g class="relationship" transform="translate(515.1366589051872 202.05911684904711) rotate(228.38108416466025)"><path class="outline" fill="#A5ABB6" stroke="none" d="M 25 0.5 L 37.56166373229955 0.5 L 37.56166373229955 -0.5 L 25 -0.5 Z M 83.12416373229955 0.5 L 95.6858274645991 0.5 L 95.6858274645991 3.5 L 102.6858274645991 0 L 95.6858274645991 -3.5 L 95.6858274645991 -0.5 L 83.12416373229955 -0.5 Z"/><text text-anchor="middle" pointer-events="none" font-size="8px" fill="#000000" x="60.34291373229955" y="3" transform="rotate(180 60.34291373229955 0)" font-family="sans-serif">ACTED_IN</text></g><g class="relationship" transform="translate(246.99249647017234 -208.1486839508236) rotate(404.78079907792517)"><path class="outline" fill="#A5ABB6" stroke="none" d="M 25 0.5 L 26.874393485173613 0.5 L 26.874393485173613 -0.5 L 25 -0.5 Z M 72.43689348517361 0.5 L 74.31128697034723 0.5 L 74.31128697034723 3.5 L 81.31128697034723 0 L 74.31128697034723 -3.5 L 74.31128697034723 -0.5 L 72.43689348517361 -0.5 Z"/><text text-anchor="middle" pointer-events="none" font-size="8px" fill="#000000" x="49.65564348517361" y="3" font-family="sans-serif">ACTED_IN</text></g><g class="relationship" transform="translate(246.99249647017234 -208.1486839508236) rotate(437.5502183172051)"><path class="outline" fill="#A5ABB6" stroke="none" d="M 25 0.5 L 26.767452946748925 0.5 L 26.767452946748925 -0.5 L 25 -0.5 Z M 72.32995294674893 0.5 L 74.09740589349785 0.5 L 74.09740589349785 3.5 L 81.09740589349785 0 L 74.09740589349785 -3.5 L 74.09740589349785 -0.5 L 72.32995294674893 -0.5 Z"/><text text-anchor="middle" pointer-events="none" font-size="8px" fill="#000000" x="49.548702946748925" y="3" font-family="sans-serif">ACTED_IN</text></g><g class="relationship" transform="translate(246.99249647017234 -208.1486839508236) rotate(377.57501589554994)"><path class="outline" fill="#A5ABB6" stroke="none" d="M 25 0.5 L 41.57886065272379 0.5 L 41.57886065272379 -0.5 L 25 -0.5 Z M 87.14136065272379 0.5 L 103.72022130544758 0.5 L 103.72022130544758 3.5 L 110.72022130544758 0 L 103.72022130544758 -3.5 L 103.72022130544758 -0.5 L 87.14136065272379 -0.5 Z"/><text text-anchor="middle" pointer-events="none" font-size="8px" fill="#000000" x="64.36011065272379" y="3" font-family="sans-serif">ACTED_IN</text></g><g class="relationship" transform="translate(299.0387193121492 -238.50621072914942) rotate(437.45720453209725)"><path class="outline" fill="#A5ABB6" stroke="none" d="M 25 0.5 L 27.626719978763674 0.5 L 27.626719978763674 -0.5 L 25 -0.5 Z M 73.18921997876367 0.5 L 75.81593995752735 0.5 L 75.81593995752735 3.5 L 82.81593995752735 0 L 75.81593995752735 -3.5 L 75.81593995752735 -0.5 L 73.18921997876367 -0.5 Z"/><text text-anchor="middle" pointer-events="none" font-size="8px" fill="#000000" x="50.407969978763674" y="3" font-family="sans-serif">ACTED_IN</text></g><g class="relationship" transform="translate(299.0387193121492 -238.50621072914942) rotate(462.2858373892445)"><path class="outline" fill="#A5ABB6" stroke="none" d="M 25 0.5 L 42.26871125359804 0.5 L 42.26871125359804 -0.5 L 25 -0.5 Z M 87.83121125359804 0.5 L 105.09992250719608 0.5 L 105.09992250719608 3.5 L 112.09992250719608 0 L 105.09992250719608 -3.5 L 105.09992250719608 -0.5 L 87.83121125359804 -0.5 Z"/><text text-anchor="middle" pointer-events="none" font-size="8px" fill="#000000" x="65.04996125359804" y="3" transform="rotate(180 65.04996125359804 0)" font-family="sans-serif">ACTED_IN</text></g><g class="relationship" transform="translate(299.0387193121492 -238.50621072914942) rotate(402.6890065316021)"><path class="outline" fill="#A5ABB6" stroke="none" d="M 25 0.5 L 26.32705243377476 0.5 L 26.32705243377476 -0.5 L 25 -0.5 Z M 71.88955243377475 0.5 L 73.21660486754952 0.5 L 73.21660486754952 3.5 L 80.21660486754952 0 L 73.21660486754952 -3.5 L 73.21660486754952 -0.5 L 71.88955243377475 -0.5 Z"/><text text-anchor="middle" pointer-events="none" font-size="8px" fill="#000000" x="49.10830243377476" y="3" font-family="sans-serif">ACTED_IN</text></g><g class="relationship" transform="translate(405.34137192127343 -79.0101043518366) rotate(251.81225702549676)"><path class="outline" fill="#A5ABB6" stroke="none" d="M 25 0.5 L 25.228705757197858 0.5 L 25.228705757197858 -0.5 L 25 -0.5 Z M 60.56464325719786 0.5 L 60.793349014395716 0.5 L 60.793349014395716 3.5 L 67.79334901439572 0 L 60.793349014395716 -3.5 L 60.793349014395716 -0.5 L 60.56464325719786 -0.5 Z"/><text text-anchor="middle" pointer-events="none" font-size="8px" fill="#000000" x="42.89667450719786" y="3" transform="rotate(180 42.89667450719786 0)" font-family="sans-serif">ACTE…</text></g><g class="relationship" transform="translate(405.34137192127343 -79.0101043518366) rotate(190.67450274637395)"><path class="outline" fill="#A5ABB6" stroke="none" d="M 25 0.5 L 42.64957065880026 0.5 L 42.64957065880026 -0.5 L 25 -0.5 Z M 88.21207065880026 0.5 L 105.86164131760052 0.5 L 105.86164131760052 3.5 L 112.86164131760052 0 L 105.86164131760052 -3.5 L 105.86164131760052 -0.5 L 88.21207065880026 -0.5 Z"/><text text-anchor="middle" pointer-events="none" font-size="8px" fill="#000000" x="65.43082065880026" y="3" transform="rotate(180 65.43082065880026 0)" font-family="sans-serif">ACTED_IN</text></g><g class="relationship" transform="translate(405.34137192127343 -79.0101043518366) rotate(213.20612033214513)"><path class="outline" fill="#A5ABB6" stroke="none" d="M 25 0.5 L 25.475940437032797 0.5 L 25.475940437032797 -0.5 L 25 -0.5 Z M 66.58922168703279 0.5 L 67.0651621240656 0.5 L 67.0651621240656 3.5 L 74.0651621240656 0 L 67.0651621240656 -3.5 L 67.0651621240656 -0.5 L 66.58922168703279 -0.5 Z"/><text text-anchor="middle" pointer-events="none" font-size="8px" fill="#000000" x="46.0325810620328" y="3" transform="rotate(180 46.0325810620328 0)" font-family="sans-serif">ACTED…</text></g><g class="relationship" transform="translate(480.6845121013 -217.40959025406485) rotate(514.280965125355)"><path class="outline" fill="#A5ABB6" stroke="none" d="M 25 0.5 L 31.60701490913837 0.5 L 31.60701490913837 -0.5 L 25 -0.5 Z M 77.16951490913837 0.5 L 83.77652981827674 0.5 L 83.77652981827674 3.5 L 90.77652981827674 0 L 83.77652981827674 -3.5 L 83.77652981827674 -0.5 L 77.16951490913837 -0.5 Z"/><text text-anchor="middle" pointer-events="none" font-size="8px" fill="#000000" x="54.38826490913837" y="3" transform="rotate(180 54.38826490913837 0)" font-family="sans-serif">ACTED_IN</text></g><g class="relationship" transform="translate(-166.78691018614273 136.90250981834524) rotate(284.5811635836542)"><path class="outline" fill="#A5ABB6" stroke="none" d="M 25 0.5 L 54.48554819284735 0.5 L 54.48554819284735 -0.5 L 25 -0.5 Z M 100.04804819284735 0.5 L 129.5335963856947 0.5 L 129.5335963856947 3.5 L 136.5335963856947 0 L 129.5335963856947 -3.5 L 129.5335963856947 -0.5 L 100.04804819284735 -0.5 Z"/><text text-anchor="middle" pointer-events="none" font-size="8px" fill="#000000" x="77.26679819284735" y="3" font-family="sans-serif">ACTED_IN</text></g><g class="relationship" transform="translate(-166.78691018614273 136.90250981834524) rotate(227.1542243523636)"><path class="outline" fill="#A5ABB6" stroke="none" d="M 25 0.5 L 30.815086768454385 0.5 L 30.815086768454385 -0.5 L 25 -0.5 Z M 76.37758676845439 0.5 L 82.19267353690877 0.5 L 82.19267353690877 3.5 L 89.19267353690877 0 L 82.19267353690877 -3.5 L 82.19267353690877 -0.5 L 76.37758676845439 -0.5 Z"/><text text-anchor="middle" pointer-events="none" font-size="8px" fill="#000000" x="53.596336768454385" y="3" transform="rotate(180 53.596336768454385 0)" font-family="sans-serif">ACTED_IN</text></g><g class="relationship" transform="translate(-166.78691018614273 136.90250981834524) rotate(520.0241145065211)"><path class="outline" fill="#A5ABB6" stroke="none" d="M 25 0.5 L 48.96064154394438 0.5 L 48.96064154394438 -0.5 L 25 -0.5 Z M 94.52314154394438 0.5 L 118.48378308788875 0.5 L 118.48378308788875 3.5 L 125.48378308788875 0 L 118.48378308788875 -3.5 L 118.48378308788875 -0.5 L 94.52314154394438 -0.5 Z"/><text text-anchor="middle" pointer-events="none" font-size="8px" fill="#000000" x="71.74189154394438" y="3" transform="rotate(180 71.74189154394438 0)" font-family="sans-serif">ACTED_IN</text></g><g class="relationship" transform="translate(-166.78691018614273 136.90250981834524) rotate(422.7471951407465)"><path class="outline" fill="#A5ABB6" stroke="none" d="M 25 0.5 L 48.55402438466538 0.5 L 48.55402438466538 -0.5 L 25 -0.5 Z M 94.11652438466538 0.5 L 117.67054876933076 0.5 L 117.67054876933076 3.5 L 124.67054876933076 0 L 117.67054876933076 -3.5 L 117.67054876933076 -0.5 L 94.11652438466538 -0.5 Z"/><text text-anchor="middle" pointer-events="none" font-size="8px" fill="#000000" x="71.33527438466538" y="3" font-family="sans-serif">ACTED_IN</text></g><g class="relationship" transform="translate(-166.78691018614273 136.90250981834524) rotate(181.93976081276753)"><path class="outline" fill="#A5ABB6" stroke="none" d="M 25 0.5 L 32.976547829148934 0.5 L 32.976547829148934 -0.5 L 25 -0.5 Z M 78.53904782914893 0.5 L 86.51559565829787 0.5 L 86.51559565829787 3.5 L 93.51559565829787 0 L 86.51559565829787 -3.5 L 86.51559565829787 -0.5 L 78.53904782914893 -0.5 Z"/><text text-anchor="middle" pointer-events="none" font-size="8px" fill="#000000" x="55.757797829148934" y="3" transform="rotate(180 55.757797829148934 0)" font-family="sans-serif">ACTED_IN</text></g><g class="relationship" transform="translate(-29.29068738934843 -93.73161537134742) rotate(502.4988922769884)"><path class="outline" fill="#A5ABB6" stroke="none" d="M 25 0.5 L 34.74539297327774 0.5 L 34.74539297327774 -0.5 L 25 -0.5 Z M 80.30789297327775 0.5 L 90.05328594655548 0.5 L 90.05328594655548 3.5 L 97.05328594655548 0 L 90.05328594655548 -3.5 L 90.05328594655548 -0.5 L 80.30789297327775 -0.5 Z"/><text text-anchor="middle" pointer-events="none" font-size="8px" fill="#000000" x="57.52664297327774" y="3" transform="rotate(180 57.52664297327774 0)" font-family="sans-serif">ACTED_IN</text></g><g class="relationship" transform="translate(-98.83858873183728 -148.91101573767324) rotate(461.8982118737285)"><path class="outline" fill="#A5ABB6" stroke="none" d="M 25 0.5 L 39.881532188575974 0.5 L 39.881532188575974 -0.5 L 25 -0.5 Z M 85.44403218857597 0.5 L 100.32556437715195 0.5 L 100.32556437715195 3.5 L 107.32556437715195 0 L 100.32556437715195 -3.5 L 100.32556437715195 -0.5 L 85.44403218857597 -0.5 Z"/><text text-anchor="middle" pointer-events="none" font-size="8px" fill="#000000" x="62.662782188575974" y="3" transform="rotate(180 62.662782188575974 0)" font-family="sans-serif">ACTED_IN</text></g><g class="relationship" transform="translate(-182.5618999358719 -134.94511135146502) rotate(423.9599426322084)"><path class="outline" fill="#A5ABB6" stroke="none" d="M 25 0.5 L 38.00273864368151 0.5 L 38.00273864368151 -0.5 L 25 -0.5 Z M 83.56523864368151 0.5 L 96.56797728736302 0.5 L 96.56797728736302 3.5 L 103.56797728736302 0 L 96.56797728736302 -3.5 L 96.56797728736302 -0.5 L 83.56523864368151 -0.5 Z"/><text text-anchor="middle" pointer-events="none" font-size="8px" fill="#000000" x="60.78398864368151" y="3" font-family="sans-serif">ACTED_IN</text></g><g class="relationship" transform="translate(-374.32524099258166 101.10031332180498) rotate(379.63813941129393)"><path class="outline" fill="#A5ABB6" stroke="none" d="M 25 0.5 L 26.128398452365133 0.5 L 26.128398452365133 -0.5 L 25 -0.5 Z M 61.46433595236513 0.5 L 62.592734404730265 0.5 L 62.592734404730265 3.5 L 69.59273440473027 0 L 62.592734404730265 -3.5 L 62.592734404730265 -0.5 L 61.46433595236513 -0.5 Z"/><text text-anchor="middle" pointer-events="none" font-size="8px" fill="#000000" x="43.79636720236513" y="3" font-family="sans-serif">ACTE…</text></g><g class="relationship" transform="translate(-374.32524099258166 101.10031332180498) rotate(339.74784326483086)"><path class="outline" fill="#A5ABB6" stroke="none" d="M 25 0.5 L 42.94023781035692 0.5 L 42.94023781035692 -0.5 L 25 -0.5 Z M 88.50273781035692 0.5 L 106.44297562071384 0.5 L 106.44297562071384 3.5 L 113.44297562071384 0 L 106.44297562071384 -3.5 L 106.44297562071384 -0.5 L 88.50273781035692 -0.5 Z"/><text text-anchor="middle" pointer-events="none" font-size="8px" fill="#000000" x="65.72148781035692" y="3" font-family="sans-serif">ACTED_IN</text></g><g class="relationship" transform="translate(-374.32524099258166 101.10031332180498) rotate(412.83698787450544)"><path class="outline" fill="#A5ABB6" stroke="none" d="M 25 0.5 L 28.436384822179058 0.5 L 28.436384822179058 -0.5 L 25 -0.5 Z M 73.99888482217906 0.5 L 77.43526964435812 0.5 L 77.43526964435812 3.5 L 84.43526964435812 0 L 77.43526964435812 -3.5 L 77.43526964435812 -0.5 L 73.99888482217906 -0.5 Z"/><text text-anchor="middle" pointer-events="none" font-size="8px" fill="#000000" x="51.21763482217906" y="3" font-family="sans-serif">ACTED_IN</text></g><g class="relationship" transform="translate(-121.4991998360831 49.88986856310094) rotate(538.4679892726806)"><path class="outline" fill="#A5ABB6" stroke="none" d="M 25 0.5 L 35.21165336030685 0.5 L 35.21165336030685 -0.5 L 25 -0.5 Z M 80.77415336030685 0.5 L 90.9858067206137 0.5 L 90.9858067206137 3.5 L 97.9858067206137 0 L 90.9858067206137 -3.5 L 90.9858067206137 -0.5 L 80.77415336030685 -0.5 Z"/><text text-anchor="middle" pointer-events="none" font-size="8px" fill="#000000" x="57.99290336030685" y="3" transform="rotate(180 57.99290336030685 0)" font-family="sans-serif">ACTED_IN</text></g><g class="relationship" transform="translate(-344.0827204797699 49.29527554908448) rotate(435.5333722058377)"><path class="outline" fill="#A5ABB6" stroke="none" d="M 25 0.5 L 45.50288684330201 0.5 L 45.50288684330201 -0.5 L 25 -0.5 Z M 91.06538684330201 0.5 L 111.56827368660402 0.5 L 111.56827368660402 3.5 L 118.56827368660402 0 L 111.56827368660402 -3.5 L 111.56827368660402 -0.5 L 91.06538684330201 -0.5 Z"/><text text-anchor="middle" pointer-events="none" font-size="8px" fill="#000000" x="68.28413684330201" y="3" font-family="sans-serif">ACTED_IN</text></g><g class="relationship" transform="translate(-344.0827204797699 49.29527554908448) rotate(362.2314789678369)"><path class="outline" fill="#A5ABB6" stroke="none" d="M 25 0.5 L 25.802006402131468 0.5 L 25.802006402131468 -0.5 L 25 -0.5 Z M 66.91528765213147 0.5 L 67.71729405426294 0.5 L 67.71729405426294 3.5 L 74.71729405426294 0 L 67.71729405426294 -3.5 L 67.71729405426294 -0.5 L 66.91528765213147 -0.5 Z"/><text text-anchor="middle" pointer-events="none" font-size="8px" fill="#000000" x="46.35864702713147" y="3" font-family="sans-serif">ACTED…</text></g><g class="relationship" transform="translate(-344.0827204797699 49.29527554908448) rotate(414.8559189330598)"><path class="outline" fill="#A5ABB6" stroke="none" d="M 25 0.5 L 27.059236358867935 0.5 L 27.059236358867935 -0.5 L 25 -0.5 Z M 68.17251760886793 0.5 L 70.23175396773587 0.5 L 70.23175396773587 3.5 L 77.23175396773587 0 L 70.23175396773587 -3.5 L 70.23175396773587 -0.5 L 68.17251760886793 -0.5 Z"/><text text-anchor="middle" pointer-events="none" font-size="8px" fill="#000000" x="47.615876983867935" y="3" font-family="sans-serif">ACTED…</text></g><g class="relationship" transform="translate(-210.60207235987633 180.56617176979557) rotate(535.4633464397957)"><path class="outline" fill="#A5ABB6" stroke="none" d="M 25 0.5 L 27.792922657135833 0.5 L 27.792922657135833 -0.5 L 25 -0.5 Z M 63.12886015713583 0.5 L 65.92178281427167 0.5 L 65.92178281427167 3.5 L 72.92178281427167 0 L 65.92178281427167 -3.5 L 65.92178281427167 -0.5 L 63.12886015713583 -0.5 Z"/><text text-anchor="middle" pointer-events="none" font-size="8px" fill="#000000" x="45.46089140713583" y="3" transform="rotate(180 45.46089140713583 0)" font-family="sans-serif">ACTE…</text></g><g class="relationship" transform="translate(-210.60207235987633 180.56617176979557) rotate(212.570447035882)"><path class="outline" fill="#A5ABB6" stroke="none" d="M 25 0.5 L 25.78019894103589 0.5 L 25.78019894103589 -0.5 L 25 -0.5 Z M 55.78019894103589 0.5 L 56.56039788207178 0.5 L 56.56039788207178 3.5 L 63.56039788207178 0 L 56.56039788207178 -3.5 L 56.56039788207178 -0.5 L 55.78019894103589 -0.5 Z"/><text text-anchor="middle" pointer-events="none" font-size="8px" fill="#000000" x="40.78019894103589" y="3" transform="rotate(180 40.78019894103589 0)" font-family="sans-serif">ACT…</text></g><g class="relationship" transform="translate(-210.60207235987633 180.56617176979557) rotate(255.12369810357177)"><path class="outline" fill="#A5ABB6" stroke="none" d="M 25 0.5 L 39.621776052271 0.5 L 39.621776052271 -0.5 L 25 -0.5 Z M 85.184276052271 0.5 L 99.806052104542 0.5 L 99.806052104542 3.5 L 106.806052104542 0 L 99.806052104542 -3.5 L 99.806052104542 -0.5 L 85.184276052271 -0.5 Z"/><text text-anchor="middle" pointer-events="none" font-size="8px" fill="#000000" x="62.403026052271" y="3" transform="rotate(180 62.403026052271 0)" font-family="sans-serif">ACTED_IN</text></g><g class="relationship" transform="translate(-166.89308672384135 373.485102637408) rotate(303.54630694433166)"><path class="outline" fill="#A5ABB6" stroke="none" d="M 25 0.5 L 35.826598358412376 0.5 L 35.826598358412376 -0.5 L 25 -0.5 Z M 81.38909835841238 0.5 L 92.21569671682475 0.5 L 92.21569671682475 3.5 L 99.21569671682475 0 L 92.21569671682475 -3.5 L 92.21569671682475 -0.5 L 81.38909835841238 -0.5 Z"/><text text-anchor="middle" pointer-events="none" font-size="8px" fill="#000000" x="58.607848358412376" y="3" font-family="sans-serif">ACTED_IN</text></g><g class="relationship" transform="translate(-89.53586346989186 400.5481502161591) rotate(266.1822827752366)"><path class="outline" fill="#A5ABB6" stroke="none" d="M 25 0.5 L 39.15862182381906 0.5 L 39.15862182381906 -0.5 L 25 -0.5 Z M 84.72112182381906 0.5 L 98.87974364763812 0.5 L 98.87974364763812 3.5 L 105.87974364763812 0 L 98.87974364763812 -3.5 L 98.87974364763812 -0.5 L 84.72112182381906 -0.5 Z"/><text text-anchor="middle" pointer-events="none" font-size="8px" fill="#000000" x="61.93987182381906" y="3" transform="rotate(180 61.93987182381906 0)" font-family="sans-serif">ACTED_IN</text></g><g class="relationship" transform="translate(-19.738752826360262 377.2975429578542) rotate(233.81691492626317)"><path class="outline" fill="#A5ABB6" stroke="none" d="M 25 0.5 L 40.21243015953405 0.5 L 40.21243015953405 -0.5 L 25 -0.5 Z M 85.77493015953405 0.5 L 100.9873603190681 0.5 L 100.9873603190681 3.5 L 107.9873603190681 0 L 100.9873603190681 -3.5 L 100.9873603190681 -0.5 L 85.77493015953405 -0.5 Z"/><text text-anchor="middle" pointer-events="none" font-size="8px" fill="#000000" x="62.99368015953405" y="3" transform="rotate(180 62.99368015953405 0)" font-family="sans-serif">ACTED_IN</text></g><g class="relationship" transform="translate(16.360345886640047 307.5742187223637) rotate(198.16993235347888)"><path class="outline" fill="#A5ABB6" stroke="none" d="M 25 0.5 L 34.031443653544905 0.5 L 34.031443653544905 -0.5 L 25 -0.5 Z M 79.5939436535449 0.5 L 88.62538730708981 0.5 L 88.62538730708981 3.5 L 95.62538730708981 0 L 88.62538730708981 -3.5 L 88.62538730708981 -0.5 L 79.5939436535449 -0.5 Z"/><text text-anchor="middle" pointer-events="none" font-size="8px" fill="#000000" x="56.812693653544905" y="3" transform="rotate(180 56.812693653544905 0)" font-family="sans-serif">ACTED_IN</text></g></g><g class="layer nodes"><g class="node" transform="translate(352.9050621691115,-16.042471352833086)"><circle class="outline" cx="0" cy="0" r="25" fill="#F79767" stroke="#f36924" stroke-width="2px"/><text text-anchor="middle" pointer-events="none" font-family="sans-serif" dy="1.5625" font-size="25" fill="#FFFFFF"/><text text-anchor="middle" pointer-events="none" font-family="sans-serif" dy="1.5625" font-size="25" fill="#FFFFFF"/><text text-anchor="middle" pointer-events="none" y="0" font-size="10px" fill="#FFFFFF" font-family="sans-serif"> Hugo</text><text text-anchor="middle" pointer-events="none" y="10" font-size="10px" fill="#FFFFFF" font-family="sans-serif"> Weaving</text></g><g class="node" transform="translate(284.3537524277839,96.9344005308168)"><circle class="outline" cx="0" cy="0" r="25" fill="#57C7E3" stroke="#23b3d7" stroke-width="2px"/><text text-anchor="middle" pointer-events="none" font-family="sans-serif" dy="1.5625" font-size="25" fill="#FFFFFF"/><text text-anchor="middle" pointer-events="none" font-family="sans-serif" dy="1.5625" font-size="25" fill="#FFFFFF"/><text text-anchor="middle" pointer-events="none" y="0" font-size="10px" fill="#FFFFFF" font-family="sans-serif"> Cloud</text><text text-anchor="middle" pointer-events="none" y="10" font-size="10px" fill="#FFFFFF" font-family="sans-serif"> Atlas</text></g><g class="node" transform="translate(173.13428374247675,85.11388695648697)"><circle class="outline" cx="0" cy="0" r="25" fill="#F79767" stroke="#f36924" stroke-width="2px"/><text text-anchor="middle" pointer-events="none" font-family="sans-serif" dy="1.5625" font-size="25" fill="#FFFFFF"/><text text-anchor="middle" pointer-events="none" font-family="sans-serif" dy="1.5625" font-size="25" fill="#FFFFFF"/><text text-anchor="middle" pointer-events="none" y="0" font-size="10px" fill="#FFFFFF" font-family="sans-serif"> Tom</text><text text-anchor="middle" pointer-events="none" y="10" font-size="10px" fill="#FFFFFF" font-family="sans-serif"> Hanks</text></g><g class="node" transform="translate(274.56972171397064,230.02693819658828)"><circle class="outline" cx="0" cy="0" r="25" fill="#F79767" stroke="#f36924" stroke-width="2px"/><text text-anchor="middle" pointer-events="none" font-family="sans-serif" dy="1.5625" font-size="25" fill="#FFFFFF"/><text text-anchor="middle" pointer-events="none" font-family="sans-serif" dy="1.5625" font-size="25" fill="#FFFFFF"/><text text-anchor="middle" pointer-events="none" y="0" font-size="10px" fill="#FFFFFF" font-family="sans-serif"> Jim</text><text text-anchor="middle" pointer-events="none" y="10" font-size="10px" fill="#FFFFFF" font-family="sans-serif"> Broadb…</text></g><g class="node" transform="translate(205.91632132805708,192.56115994556805)"><circle class="outline" cx="0" cy="0" r="25" fill="#F79767" stroke="#f36924" stroke-width="2px"/><text text-anchor="middle" pointer-events="none" font-family="sans-serif" dy="1.5625" font-size="25" fill="#FFFFFF"/><text text-anchor="middle" pointer-events="none" font-family="sans-serif" dy="1.5625" font-size="25" fill="#FFFFFF"/><text text-anchor="middle" pointer-events="none" y="0" font-size="10px" fill="#FFFFFF" font-family="sans-serif"> Halle</text><text text-anchor="middle" pointer-events="none" y="10" font-size="10px" fill="#FFFFFF" font-family="sans-serif"> Berry</text></g><g class="node" transform="translate(430.33117251375364,106.60389167393299)"><circle class="outline" cx="0" cy="0" r="25" fill="#57C7E3" stroke="#23b3d7" stroke-width="2px"/><text text-anchor="middle" pointer-events="none" font-family="sans-serif" dy="1.5625" font-size="25" fill="#FFFFFF"/><text text-anchor="middle" pointer-events="none" font-family="sans-serif" dy="1.5625" font-size="25" fill="#FFFFFF"/><text text-anchor="middle" pointer-events="none" y="0" font-size="10px" fill="#FFFFFF" font-family="sans-serif"> V for</text><text text-anchor="middle" pointer-events="none" y="10" font-size="10px" fill="#FFFFFF" font-family="sans-serif"> Vendetta</text></g><g class="node" transform="translate(388.5842427769323,228.76172846929614)"><circle class="outline" cx="0" cy="0" r="25" fill="#F79767" stroke="#f36924" stroke-width="2px"/><text text-anchor="middle" pointer-events="none" font-family="sans-serif" dy="1.5625" font-size="25" fill="#FFFFFF"/><text text-anchor="middle" pointer-events="none" font-family="sans-serif" dy="1.5625" font-size="25" fill="#FFFFFF"/><text text-anchor="middle" pointer-events="none" y="0" font-size="10px" fill="#FFFFFF" font-family="sans-serif"> Stephen</text><text text-anchor="middle" pointer-events="none" y="10" font-size="10px" fill="#FFFFFF" font-family="sans-serif"> Rea</text></g><g class="node" transform="translate(453.75148446285414,241.8826644326533)"><circle class="outline" cx="0" cy="0" r="25" fill="#F79767" stroke="#f36924" stroke-width="2px"/><text text-anchor="middle" pointer-events="none" font-family="sans-serif" dy="1.5625" font-size="25" fill="#FFFFFF"/><text text-anchor="middle" pointer-events="none" font-family="sans-serif" dy="1.5625" font-size="25" fill="#FFFFFF"/><text text-anchor="middle" pointer-events="none" y="0" font-size="10px" fill="#FFFFFF" font-family="sans-serif"> Natalie</text><text text-anchor="middle" pointer-events="none" y="10" font-size="10px" fill="#FFFFFF" font-family="sans-serif"> Portman</text></g><g class="node" transform="translate(548.1103787495111,118.54752095814705)"><circle class="outline" cx="0" cy="0" r="25" fill="#F79767" stroke="#f36924" stroke-width="2px"/><text text-anchor="middle" pointer-events="none" font-family="sans-serif" dy="1.5625" font-size="25" fill="#FFFFFF"/><text text-anchor="middle" pointer-events="none" y="5" font-size="10px" fill="#FFFFFF" font-family="sans-serif"> John Hurt</text></g><g class="node" transform="translate(515.1366589051872,202.05911684904711)"><circle class="outline" cx="0" cy="0" r="25" fill="#F79767" stroke="#f36924" stroke-width="2px"/><text text-anchor="middle" pointer-events="none" font-family="sans-serif" dy="1.5625" font-size="25" fill="#FFFFFF"/><text text-anchor="middle" pointer-events="none" y="5" font-size="10px" fill="#FFFFFF" font-family="sans-serif"> Ben Miles</text></g><g class="node" transform="translate(322.4529744099169,-133.26339830406357)"><circle class="outline" cx="0" cy="0" r="25" fill="#57C7E3" stroke="#23b3d7" stroke-width="2px"/><text text-anchor="middle" pointer-events="none" font-family="sans-serif" dy="1.5625" font-size="25" fill="#FFFFFF"/><text text-anchor="middle" pointer-events="none" font-family="sans-serif" dy="1.5625" font-size="25" fill="#FFFFFF"/><text text-anchor="middle" pointer-events="none" font-family="sans-serif" dy="1.5625" font-size="25" fill="#FFFFFF"/><text text-anchor="middle" pointer-events="none" y="-5" font-size="10px" fill="#FFFFFF" font-family="sans-serif"> The</text><text text-anchor="middle" pointer-events="none" y="5" font-size="10px" fill="#FFFFFF" font-family="sans-serif"> Matrix</text><text text-anchor="middle" pointer-events="none" y="15" font-size="10px" fill="#FFFFFF" font-family="sans-serif"> Revol…</text></g><g class="node" transform="translate(246.99249647017234,-208.1486839508236)"><circle class="outline" cx="0" cy="0" r="25" fill="#F79767" stroke="#f36924" stroke-width="2px"/><text text-anchor="middle" pointer-events="none" font-family="sans-serif" dy="1.5625" font-size="25" fill="#FFFFFF"/><text text-anchor="middle" pointer-events="none" font-family="sans-serif" dy="1.5625" font-size="25" fill="#FFFFFF"/><text text-anchor="middle" pointer-events="none" y="0" font-size="10px" fill="#FFFFFF" font-family="sans-serif"> Keanu</text><text text-anchor="middle" pointer-events="none" y="10" font-size="10px" fill="#FFFFFF" font-family="sans-serif"> Reeves</text></g><g class="node" transform="translate(299.0387193121492,-238.50621072914942)"><circle class="outline" cx="0" cy="0" r="25" fill="#F79767" stroke="#f36924" stroke-width="2px"/><text text-anchor="middle" pointer-events="none" font-family="sans-serif" dy="1.5625" font-size="25" fill="#FFFFFF"/><text text-anchor="middle" pointer-events="none" y="5" font-size="10px" fill="#FFFFFF" font-family="sans-serif"> Carrie-A…</text></g><g class="node" transform="translate(405.34137192127343,-79.0101043518366)"><circle class="outline" cx="0" cy="0" r="25" fill="#F79767" stroke="#f36924" stroke-width="2px"/><text text-anchor="middle" pointer-events="none" font-family="sans-serif" dy="1.5625" font-size="25" fill="#FFFFFF"/><text text-anchor="middle" pointer-events="none" font-family="sans-serif" dy="1.5625" font-size="25" fill="#FFFFFF"/><text text-anchor="middle" pointer-events="none" y="0" font-size="10px" fill="#FFFFFF" font-family="sans-serif"> Laurence</text><text text-anchor="middle" pointer-events="none" y="10" font-size="10px" fill="#FFFFFF" font-family="sans-serif"> Fishbur…</text></g><g class="node" transform="translate(269.8653817861699,-104.54612290790895)"><circle class="outline" cx="0" cy="0" r="25" fill="#57C7E3" stroke="#23b3d7" stroke-width="2px"/><text text-anchor="middle" pointer-events="none" font-family="sans-serif" dy="1.5625" font-size="25" fill="#FFFFFF"/><text text-anchor="middle" pointer-events="none" font-family="sans-serif" dy="1.5625" font-size="25" fill="#FFFFFF"/><text text-anchor="middle" pointer-events="none" font-family="sans-serif" dy="1.5625" font-size="25" fill="#FFFFFF"/><text text-anchor="middle" pointer-events="none" y="-5" font-size="10px" fill="#FFFFFF" font-family="sans-serif"> The</text><text text-anchor="middle" pointer-events="none" y="5" font-size="10px" fill="#FFFFFF" font-family="sans-serif"> Matrix</text><text text-anchor="middle" pointer-events="none" y="15" font-size="10px" fill="#FFFFFF" font-family="sans-serif"> Reloa…</text></g><g class="node" transform="translate(376.3776272427441,-167.16739058221248)"><circle class="outline" cx="0" cy="0" r="25" fill="#57C7E3" stroke="#23b3d7" stroke-width="2px"/><text text-anchor="middle" pointer-events="none" font-family="sans-serif" dy="1.5625" font-size="25" fill="#FFFFFF"/><text text-anchor="middle" pointer-events="none" font-family="sans-serif" dy="1.5625" font-size="25" fill="#FFFFFF"/><text text-anchor="middle" pointer-events="none" y="0" font-size="10px" fill="#FFFFFF" font-family="sans-serif"> The</text><text text-anchor="middle" pointer-events="none" y="10" font-size="10px" fill="#FFFFFF" font-family="sans-serif"> Matrix</text></g><g class="node" transform="translate(480.6845121013,-217.40959025406485)"><circle class="outline" cx="0" cy="0" r="25" fill="#F79767" stroke="#f36924" stroke-width="2px"/><text text-anchor="middle" pointer-events="none" font-family="sans-serif" dy="1.5625" font-size="25" fill="#FFFFFF"/><text text-anchor="middle" pointer-events="none" font-family="sans-serif" dy="1.5625" font-size="25" fill="#FFFFFF"/><text text-anchor="middle" pointer-events="none" y="0" font-size="10px" fill="#FFFFFF" font-family="sans-serif"> Emil</text><text text-anchor="middle" pointer-events="none" y="10" font-size="10px" fill="#FFFFFF" font-family="sans-serif"> Eifrem</text></g><g class="node" transform="translate(-166.78691018614273,136.90250981834524)"><circle class="outline" cx="0" cy="0" r="25" fill="#F79767" stroke="#f36924" stroke-width="2px"/><text text-anchor="middle" pointer-events="none" font-family="sans-serif" dy="1.5625" font-size="25" fill="#FFFFFF"/><text text-anchor="middle" pointer-events="none" font-family="sans-serif" dy="1.5625" font-size="25" fill="#FFFFFF"/><text text-anchor="middle" pointer-events="none" y="0" font-size="10px" fill="#FFFFFF" font-family="sans-serif"> Hugo</text><text text-anchor="middle" pointer-events="none" y="10" font-size="10px" fill="#FFFFFF" font-family="sans-serif"> Weaving</text></g><g class="node" transform="translate(-126.12063297206394,-19.428410536024252)"><circle class="outline" cx="0" cy="0" r="25" fill="#57C7E3" stroke="#23b3d7" stroke-width="2px"/><text text-anchor="middle" pointer-events="none" font-family="sans-serif" dy="1.5625" font-size="25" fill="#FFFFFF"/><text text-anchor="middle" pointer-events="none" font-family="sans-serif" dy="1.5625" font-size="25" fill="#FFFFFF"/><text text-anchor="middle" pointer-events="none" y="0" font-size="10px" fill="#FFFFFF" font-family="sans-serif"> Cloud</text><text text-anchor="middle" pointer-events="none" y="10" font-size="10px" fill="#FFFFFF" font-family="sans-serif"> Atlas</text></g><g class="node" transform="translate(-29.29068738934843,-93.73161537134742)"><circle class="outline" cx="0" cy="0" r="25" fill="#F79767" stroke="#f36924" stroke-width="2px"/><text text-anchor="middle" pointer-events="none" font-family="sans-serif" dy="1.5625" font-size="25" fill="#FFFFFF"/><text text-anchor="middle" pointer-events="none" font-family="sans-serif" dy="1.5625" font-size="25" fill="#FFFFFF"/><text text-anchor="middle" pointer-events="none" y="0" font-size="10px" fill="#FFFFFF" font-family="sans-serif"> Tom</text><text text-anchor="middle" pointer-events="none" y="10" font-size="10px" fill="#FFFFFF" font-family="sans-serif"> Hanks</text></g><g class="node" transform="translate(-98.83858873183728,-148.91101573767324)"><circle class="outline" cx="0" cy="0" r="25" fill="#F79767" stroke="#f36924" stroke-width="2px"/><text text-anchor="middle" pointer-events="none" font-family="sans-serif" dy="1.5625" font-size="25" fill="#FFFFFF"/><text text-anchor="middle" pointer-events="none" font-family="sans-serif" dy="1.5625" font-size="25" fill="#FFFFFF"/><text text-anchor="middle" pointer-events="none" y="0" font-size="10px" fill="#FFFFFF" font-family="sans-serif"> Jim</text><text text-anchor="middle" pointer-events="none" y="10" font-size="10px" fill="#FFFFFF" font-family="sans-serif"> Broadb…</text></g><g class="node" transform="translate(-182.5618999358719,-134.94511135146502)"><circle class="outline" cx="0" cy="0" r="25" fill="#F79767" stroke="#f36924" stroke-width="2px"/><text text-anchor="middle" pointer-events="none" font-family="sans-serif" dy="1.5625" font-size="25" fill="#FFFFFF"/><text text-anchor="middle" pointer-events="none" font-family="sans-serif" dy="1.5625" font-size="25" fill="#FFFFFF"/><text text-anchor="middle" pointer-events="none" y="0" font-size="10px" fill="#FFFFFF" font-family="sans-serif"> Halle</text><text text-anchor="middle" pointer-events="none" y="10" font-size="10px" fill="#FFFFFF" font-family="sans-serif"> Berry</text></g><g class="node" transform="translate(-244.44104455374404,53.17794887518144)"><circle class="outline" cx="0" cy="0" r="25" fill="#57C7E3" stroke="#23b3d7" stroke-width="2px"/><text text-anchor="middle" pointer-events="none" font-family="sans-serif" dy="1.5625" font-size="25" fill="#FFFFFF"/><text text-anchor="middle" pointer-events="none" font-family="sans-serif" dy="1.5625" font-size="25" fill="#FFFFFF"/><text text-anchor="middle" pointer-events="none" y="0" font-size="10px" fill="#FFFFFF" font-family="sans-serif"> The</text><text text-anchor="middle" pointer-events="none" y="10" font-size="10px" fill="#FFFFFF" font-family="sans-serif"> Matrix</text></g><g class="node" transform="translate(-374.32524099258166,101.10031332180498)"><circle class="outline" cx="0" cy="0" r="25" fill="#F79767" stroke="#f36924" stroke-width="2px"/><text text-anchor="middle" pointer-events="none" font-family="sans-serif" dy="1.5625" font-size="25" fill="#FFFFFF"/><text text-anchor="middle" pointer-events="none" y="5" font-size="10px" fill="#FFFFFF" font-family="sans-serif"> Carrie-A…</text></g><g class="node" transform="translate(-121.4991998360831,49.88986856310094)"><circle class="outline" cx="0" cy="0" r="25" fill="#F79767" stroke="#f36924" stroke-width="2px"/><text text-anchor="middle" pointer-events="none" font-family="sans-serif" dy="1.5625" font-size="25" fill="#FFFFFF"/><text text-anchor="middle" pointer-events="none" font-family="sans-serif" dy="1.5625" font-size="25" fill="#FFFFFF"/><text text-anchor="middle" pointer-events="none" y="0" font-size="10px" fill="#FFFFFF" font-family="sans-serif"> Emil</text><text text-anchor="middle" pointer-events="none" y="10" font-size="10px" fill="#FFFFFF" font-family="sans-serif"> Eifrem</text></g><g class="node" transform="translate(-344.0827204797699,49.29527554908448)"><circle class="outline" cx="0" cy="0" r="25" fill="#F79767" stroke="#f36924" stroke-width="2px"/><text text-anchor="middle" pointer-events="none" font-family="sans-serif" dy="1.5625" font-size="25" fill="#FFFFFF"/><text text-anchor="middle" pointer-events="none" font-family="sans-serif" dy="1.5625" font-size="25" fill="#FFFFFF"/><text text-anchor="middle" pointer-events="none" y="0" font-size="10px" fill="#FFFFFF" font-family="sans-serif"> Keanu</text><text text-anchor="middle" pointer-events="none" y="10" font-size="10px" fill="#FFFFFF" font-family="sans-serif"> Reeves</text></g><g class="node" transform="translate(-210.60207235987633,180.56617176979557)"><circle class="outline" cx="0" cy="0" r="25" fill="#F79767" stroke="#f36924" stroke-width="2px"/><text text-anchor="middle" pointer-events="none" font-family="sans-serif" dy="1.5625" font-size="25" fill="#FFFFFF"/><text text-anchor="middle" pointer-events="none" font-family="sans-serif" dy="1.5625" font-size="25" fill="#FFFFFF"/><text text-anchor="middle" pointer-events="none" y="0" font-size="10px" fill="#FFFFFF" font-family="sans-serif"> Laurence</text><text text-anchor="middle" pointer-events="none" y="10" font-size="10px" fill="#FFFFFF" font-family="sans-serif"> Fishbur…</text></g><g class="node" transform="translate(-308.2170601059257,188.31147466019416)"><circle class="outline" cx="0" cy="0" r="25" fill="#57C7E3" stroke="#23b3d7" stroke-width="2px"/><text text-anchor="middle" pointer-events="none" font-family="sans-serif" dy="1.5625" font-size="25" fill="#FFFFFF"/><text text-anchor="middle" pointer-events="none" font-family="sans-serif" dy="1.5625" font-size="25" fill="#FFFFFF"/><text text-anchor="middle" pointer-events="none" font-family="sans-serif" dy="1.5625" font-size="25" fill="#FFFFFF"/><text text-anchor="middle" pointer-events="none" y="-5" font-size="10px" fill="#FFFFFF" font-family="sans-serif"> The</text><text text-anchor="middle" pointer-events="none" y="5" font-size="10px" fill="#FFFFFF" font-family="sans-serif"> Matrix</text><text text-anchor="middle" pointer-events="none" y="15" font-size="10px" fill="#FFFFFF" font-family="sans-serif"> Revol…</text></g><g class="node" transform="translate(-98.2501563179395,269.9588382590547)"><circle class="outline" cx="0" cy="0" r="25" fill="#57C7E3" stroke="#23b3d7" stroke-width="2px"/><text text-anchor="middle" pointer-events="none" font-family="sans-serif" dy="1.5625" font-size="25" fill="#FFFFFF"/><text text-anchor="middle" pointer-events="none" font-family="sans-serif" dy="1.5625" font-size="25" fill="#FFFFFF"/><text text-anchor="middle" pointer-events="none" y="0" font-size="10px" fill="#FFFFFF" font-family="sans-serif"> V for</text><text text-anchor="middle" pointer-events="none" y="10" font-size="10px" fill="#FFFFFF" font-family="sans-serif"> Vendetta</text></g><g class="node" transform="translate(-166.89308672384135,373.485102637408)"><circle class="outline" cx="0" cy="0" r="25" fill="#F79767" stroke="#f36924" stroke-width="2px"/><text text-anchor="middle" pointer-events="none" font-family="sans-serif" dy="1.5625" font-size="25" fill="#FFFFFF"/><text text-anchor="middle" pointer-events="none" font-family="sans-serif" dy="1.5625" font-size="25" fill="#FFFFFF"/><text text-anchor="middle" pointer-events="none" y="0" font-size="10px" fill="#FFFFFF" font-family="sans-serif"> Natalie</text><text text-anchor="middle" pointer-events="none" y="10" font-size="10px" fill="#FFFFFF" font-family="sans-serif"> Portman</text></g><g class="node" transform="translate(-89.53586346989186,400.5481502161591)"><circle class="outline" cx="0" cy="0" r="25" fill="#F79767" stroke="#f36924" stroke-width="2px"/><text text-anchor="middle" pointer-events="none" font-family="sans-serif" dy="1.5625" font-size="25" fill="#FFFFFF"/><text text-anchor="middle" pointer-events="none" font-family="sans-serif" dy="1.5625" font-size="25" fill="#FFFFFF"/><text text-anchor="middle" pointer-events="none" y="0" font-size="10px" fill="#FFFFFF" font-family="sans-serif"> Stephen</text><text text-anchor="middle" pointer-events="none" y="10" font-size="10px" fill="#FFFFFF" font-family="sans-serif"> Rea</text></g><g class="node" transform="translate(-19.738752826360262,377.2975429578542)"><circle class="outline" cx="0" cy="0" r="25" fill="#F79767" stroke="#f36924" stroke-width="2px"/><text text-anchor="middle" pointer-events="none" font-family="sans-serif" dy="1.5625" font-size="25" fill="#FFFFFF"/><text text-anchor="middle" pointer-events="none" y="5" font-size="10px" fill="#FFFFFF" font-family="sans-serif"> John Hurt</text></g><g class="node" transform="translate(16.360345886640047,307.5742187223637)"><circle class="outline" cx="0" cy="0" r="25" fill="#F79767" stroke="#f36924" stroke-width="2px"/><text text-anchor="middle" pointer-events="none" font-family="sans-serif" dy="1.5625" font-size="25" fill="#FFFFFF"/><text text-anchor="middle" pointer-events="none" y="5" font-size="10px" fill="#FFFFFF" font-family="sans-serif"> Ben Miles</text></g><g class="node" transform="translate(-285.234592499064,132.89090553346907)"><circle class="outline" cx="0" cy="0" r="25" fill="#57C7E3" stroke="#23b3d7" stroke-width="2px"/><text text-anchor="middle" pointer-events="none" font-family="sans-serif" dy="1.5625" font-size="25" fill="#FFFFFF"/><text text-anchor="middle" pointer-events="none" font-family="sans-serif" dy="1.5625" font-size="25" fill="#FFFFFF"/><text text-anchor="middle" pointer-events="none" font-family="sans-serif" dy="1.5625" font-size="25" fill="#FFFFFF"/><text text-anchor="middle" pointer-events="none" y="-5" font-size="10px" fill="#FFFFFF" font-family="sans-serif"> The</text><text text-anchor="middle" pointer-events="none" y="5" font-size="10px" fill="#FFFFFF" font-family="sans-serif"> Matrix</text><text text-anchor="middle" pointer-events="none" y="15" font-size="10px" fill="#FFFFFF" font-family="sans-serif"> Reloa…</text></g></g></svg>